<?xml version="1.0" encoding="utf-8"?>
<svg version="1.1" width="512px" height="512px" style="shape-rendering:geometricPrecision; text-rendering:geometricPrecision; image-rendering:optimizeQuality; fill-rule:evenodd; clip-rule:evenodd" xmlns="http://www.w3.org/2000/svg">
  <g>
    <path style="opacity: 0.982; fill: rgb(255, 255, 255);" d="M 315.5,-0.5 C 320.5,-0.5 325.5,-0.5 330.5,-0.5C 331.499,10.8218 332.499,22.1552 333.5,33.5C 389.852,39.3539 446.185,45.3539 502.5,51.5C 487.295,195.222 471.628,338.888 455.5,482.5C 443.556,480.803 431.556,479.469 419.5,478.5C 419.5,345.5 419.5,212.5 419.5,79.5C 302.5,79.5 185.5,79.5 68.5,79.5C 68.5,203.5 68.5,327.5 68.5,451.5C 58.5235,452.451 48.5235,453.117 38.5,453.5C 28.7212,309.484 18.7212,165.484 8.5,21.5C 111.013,14.5824 213.347,7.24909 315.5,-0.5 Z M 186.5,178.5 C 201.323,176.967 214.99,180.133 227.5,188C 230.35,190.682 233.016,193.516 235.5,196.5C 229.509,202.323 223.343,207.989 217,213.5C 207.209,202.757 195.709,200.59 182.5,207C 171.904,218.55 170.738,231.05 179,244.5C 192.783,254.612 205.45,253.278 217,240.5C 223,245.833 229,251.167 235,256.5C 235.667,257.5 235.667,258.5 235,259.5C 223.987,270.4 210.654,276.067 195,276.5C 171.053,276.173 154.386,265.173 145,243.5C 137.682,208.105 151.516,186.439 186.5,178.5 Z M 237.5,180.5 C 248.5,180.5 259.5,180.5 270.5,180.5C 277.315,199.113 284.815,217.446 293,235.5C 300.667,217.5 308.333,199.5 316,181.5C 326.09,180.348 336.256,180.181 346.5,181C 333.204,211.76 320.038,242.594 307,273.5C 296.667,274.833 286.333,274.833 276,273.5C 262.865,242.585 250.031,211.585 237.5,180.5 Z M 146.5,311.5 C 211.5,311.5 276.5,311.5 341.5,311.5C 341.5,321.167 341.5,330.833 341.5,340.5C 276.5,340.5 211.5,340.5 146.5,340.5C 146.5,330.833 146.5,321.167 146.5,311.5 Z M 146.5,365.5 C 211.5,365.5 276.5,365.5 341.5,365.5C 341.5,375.167 341.5,384.833 341.5,394.5C 276.5,394.5 211.5,394.5 146.5,394.5C 146.5,384.833 146.5,375.167 146.5,365.5 Z M 146.5,418.5 C 211.5,418.5 276.5,418.5 341.5,418.5C 341.5,428.167 341.5,437.833 341.5,447.5C 276.5,447.5 211.5,447.5 146.5,447.5C 146.5,437.833 146.5,428.167 146.5,418.5 Z"/>
  </g>
  <g>
    <path style="opacity:0.98" d="M 390.5,511.5 C 292.833,511.5 195.167,511.5 97.5,511.5C 97.5,377.167 97.5,242.833 97.5,108.5C 195.167,108.5 292.833,108.5 390.5,108.5C 390.5,242.833 390.5,377.167 390.5,511.5 Z M 186.5,178.5 C 151.516,186.439 137.682,208.105 145,243.5C 154.386,265.173 171.053,276.173 195,276.5C 210.654,276.067 223.987,270.4 235,259.5C 235.667,258.5 235.667,257.5 235,256.5C 229,251.167 223,245.833 217,240.5C 205.45,253.278 192.783,254.612 179,244.5C 170.738,231.05 171.904,218.55 182.5,207C 195.709,200.59 207.209,202.757 217,213.5C 223.343,207.989 229.509,202.323 235.5,196.5C 233.016,193.516 230.35,190.682 227.5,188C 214.99,180.133 201.323,176.967 186.5,178.5 Z M 237.5,180.5 C 250.031,211.585 262.865,242.585 276,273.5C 286.333,274.833 296.667,274.833 307,273.5C 320.038,242.594 333.204,211.76 346.5,181C 336.256,180.181 326.09,180.348 316,181.5C 308.333,199.5 300.667,217.5 293,235.5C 284.815,217.446 277.315,199.113 270.5,180.5C 259.5,180.5 248.5,180.5 237.5,180.5 Z M 146.5,311.5 C 146.5,321.167 146.5,330.833 146.5,340.5C 211.5,340.5 276.5,340.5 341.5,340.5C 341.5,330.833 341.5,321.167 341.5,311.5C 276.5,311.5 211.5,311.5 146.5,311.5 Z M 146.5,365.5 C 146.5,375.167 146.5,384.833 146.5,394.5C 211.5,394.5 276.5,394.5 341.5,394.5C 341.5,384.833 341.5,375.167 341.5,365.5C 276.5,365.5 211.5,365.5 146.5,365.5 Z M 146.5,418.5 C 146.5,428.167 146.5,437.833 146.5,447.5C 211.5,447.5 276.5,447.5 341.5,447.5C 341.5,437.833 341.5,428.167 341.5,418.5C 276.5,418.5 211.5,418.5 146.5,418.5 Z" fill="#000000"/>
  </g>
</svg>