<?xml version="1.0" encoding="UTF-8"?>
<!DOCTYPE svg PUBLIC "-//W3C//DTD SVG 1.1//EN" "http://www.w3.org/Graphics/SVG/1.1/DTD/svg11.dtd">
<svg xmlns="http://www.w3.org/2000/svg" version="1.1" width="512px" height="512px" style="shape-rendering:geometricPrecision; text-rendering:geometricPrecision; image-rendering:optimizeQuality; fill-rule:evenodd; clip-rule:evenodd" xmlns:xlink="http://www.w3.org/1999/xlink">
<g><path style="opacity:0.976" fill="#272727" d="M 397.5,61.5 C 400.127,60.9084 402.794,60.5751 405.5,60.5C 413.342,59.9472 420.342,62.1139 426.5,67C 432.645,73.4765 439.145,79.6431 446,85.5C 452.033,93.1661 454.033,101.833 452,111.5C 448.963,120.61 445.963,129.61 443,138.5C 450.273,153.38 457.273,168.38 464,183.5C 466.941,191.264 468.941,199.264 470,207.5C 478.262,211.255 486.762,214.421 495.5,217C 502.508,219.344 506.674,224.177 508,231.5C 509.119,236.616 509.952,241.783 510.5,247C 509.706,257.501 508.872,268.001 508,278.5C 505.223,284.943 500.723,289.777 494.5,293C 486.719,296.556 478.719,299.556 470.5,302C 461.074,320.296 457.074,339.796 458.5,360.5C 459.825,386.828 460.659,413.161 461,439.5C 460.945,453.948 457.779,467.615 451.5,480.5C 450.094,480.973 449.427,481.973 449.5,483.5C 438.421,499.375 423.087,507.375 403.5,507.5C 394.844,506.854 386.177,506.52 377.5,506.5C 375.5,505.167 373.5,505.167 371.5,506.5C 367.167,506.5 362.833,506.5 358.5,506.5C 356.5,505.167 354.5,505.167 352.5,506.5C 348.5,506.5 344.5,506.5 340.5,506.5C 338.5,505.167 336.5,505.167 334.5,506.5C 288.841,508.031 243.174,509.364 197.5,510.5C 169.052,510.574 140.718,508.907 112.5,505.5C 109.977,504.746 107.311,504.08 104.5,503.5C 103.893,503.624 103.56,503.957 103.5,504.5C 100.833,503.833 98.1667,503.167 95.5,502.5C 92.0542,501.313 88.3875,500.646 84.5,500.5C 79.478,499.495 74.478,498.328 69.5,497C 61.3231,488.816 56.1565,478.982 54,467.5C 52.0011,454.588 51.1678,441.588 51.5,428.5C 52.3046,403.831 52.8046,379.164 53,354.5C 53.0114,338.883 49.3447,324.217 42,310.5C 34.0306,300.09 23.5306,293.59 10.5,291C 6.80618,288.313 4.30618,284.813 3,280.5C 1.81825,272.355 0.651583,264.355 -0.5,256.5C -0.5,254.833 -0.5,253.167 -0.5,251.5C 0.222502,235.88 7.2225,224.046 20.5,216C 27.0653,212.701 33.8987,210.201 41,208.5C 46.8698,184.887 55.8698,162.554 68,141.5C 68.6518,138.406 68.3185,135.406 67,132.5C 63.113,125.394 59.7797,118.061 57,110.5C 56.2327,106.406 56.566,102.406 58,98.5C 66.1211,85.3786 76.6211,74.5452 89.5,66C 91.743,64.8638 94.0763,64.0305 96.5,63.5C 100.725,62.1211 105.058,61.1211 109.5,60.5C 121.141,60.3251 131.641,63.6585 141,70.5C 161.233,58.5914 182.733,49.9247 205.5,44.5C 207.758,29.7851 214.425,17.6184 225.5,8C 232.13,4.3057 239.13,3.13903 246.5,4.5C 257.866,1.66837 269.199,1.83504 280.5,5C 284.419,6.54026 287.919,8.70693 291,11.5C 297.729,20.3229 302.562,30.1562 305.5,41C 305.905,41.9454 306.572,42.6121 307.5,43C 330.866,49.4502 353.033,58.6169 374,70.5C 381.517,66.6066 389.35,63.6066 397.5,61.5 Z M 251.5,10.5 C 246.498,14.0031 241.165,17.0031 235.5,19.5C 237.14,16.8508 238.807,14.1841 240.5,11.5C 244.215,11.577 247.881,11.2436 251.5,10.5 Z M 267.5,12.5 C 270.583,12.916 273.583,13.5826 276.5,14.5C 235.763,38.5582 194.763,62.2248 153.5,85.5C 166.015,76.0746 178.348,66.4079 190.5,56.5C 198.825,54.5854 206.825,51.7521 214.5,48C 217.381,45.7213 219.381,42.888 220.5,39.5C 236.664,31.2549 252.331,22.2549 267.5,12.5 Z M 283.5,23.5 C 284.167,24.8333 284.833,26.1667 285.5,27.5C 266.464,39.0179 247.131,50.0179 227.5,60.5C 245.815,47.6728 264.482,35.3395 283.5,23.5 Z M 289.5,39.5 C 289.833,40.8333 290.167,42.1667 290.5,43.5C 286.5,45.5 282.5,47.5 278.5,49.5C 282.141,46.1951 285.808,42.8617 289.5,39.5 Z M 311.5,55.5 C 312.995,55.9887 314.329,56.6554 315.5,57.5C 312.807,58.8466 310.14,60.1799 307.5,61.5C 309.226,59.7721 310.559,57.7721 311.5,55.5 Z M 254.5,57.5 C 251.037,61.4643 247.37,65.2977 243.5,69C 239.268,71.2746 235.268,73.7746 231.5,76.5C 229.585,76.7845 227.919,76.4511 226.5,75.5C 234.769,68.0208 244.102,62.0208 254.5,57.5 Z M 227.5,60.5 C 227.027,61.9063 226.027,62.573 224.5,62.5C 224.973,61.0937 225.973,60.427 227.5,60.5 Z M 288.5,67.5 C 291.001,67.5109 291.168,68.1776 289,69.5C 288.536,68.9056 288.369,68.2389 288.5,67.5 Z M 343.5,67.5 C 345.284,67.8925 346.95,68.5592 348.5,69.5C 345.669,71.4168 342.669,73.0834 339.5,74.5C 340.079,71.6689 341.412,69.3356 343.5,67.5 Z M 106.5,68.5 C 107.167,68.8333 107.833,69.1667 108.5,69.5C 107.101,70.8897 105.434,71.8897 103.5,72.5C 104.5,71.1667 105.5,69.8333 106.5,68.5 Z M 403.5,69.5 C 405.167,69.5 406.833,69.5 408.5,69.5C 404.167,72.669 399.5,75.3357 394.5,77.5C 397.474,74.8621 400.474,72.1954 403.5,69.5 Z M 260.5,72.5 C 260.167,73.1667 259.833,73.8333 259.5,74.5C 258.5,74.5 257.5,74.5 256.5,74.5C 257.514,73.3263 258.847,72.6596 260.5,72.5 Z M 326.5,75.5 C 325.541,79.4465 323.208,82.1131 319.5,83.5C 321.562,81.63 322.895,79.2967 323.5,76.5C 324.417,75.8728 325.417,75.5394 326.5,75.5 Z M 418.5,76.5 C 419.167,76.5 419.5,76.8333 419.5,77.5C 418.486,78.6737 417.153,79.3404 415.5,79.5C 416.167,78.1667 417.167,77.1667 418.5,76.5 Z M 360.5,77.5 C 362.153,77.6596 363.486,78.3263 364.5,79.5C 361.979,81.0192 359.479,82.6859 357,84.5C 357.085,81.6641 358.251,79.3307 360.5,77.5 Z M 249.5,83.5 C 234.331,93.2549 218.664,102.255 202.5,110.5C 214.5,101.833 226.5,93.1667 238.5,84.5C 242.135,83.8857 245.802,83.5524 249.5,83.5 Z M 336.5,90.5 C 335.833,90.1667 335.167,89.8333 334.5,89.5C 337.687,87.6497 340.853,85.6497 344,83.5C 344.617,84.4491 344.451,85.2825 343.5,86C 341.102,87.5242 338.769,89.0242 336.5,90.5 Z M 270.5,84.5 C 271.167,84.5 271.833,84.5 272.5,84.5C 269.76,86.5595 266.76,88.2262 263.5,89.5C 265.531,87.4776 267.865,85.8109 270.5,84.5 Z M 289.5,87.5 C 290.167,87.5 290.833,87.5 291.5,87.5C 289.819,89.0075 287.819,90.0075 285.5,90.5C 286.436,89.0256 287.77,88.0256 289.5,87.5 Z M 285.5,90.5 C 285.027,91.9063 284.027,92.573 282.5,92.5C 282.973,91.0937 283.973,90.427 285.5,90.5 Z M 280.5,93.5 C 280.027,94.9063 279.027,95.573 277.5,95.5C 277.973,94.0937 278.973,93.427 280.5,93.5 Z M 435.5,94.5 C 435.893,96.2838 436.559,97.9505 437.5,99.5C 432.833,101.833 428.167,104.167 423.5,106.5C 427.167,102.167 431.167,98.1667 435.5,94.5 Z M 319.5,95.5 C 321.153,95.6596 322.486,96.3263 323.5,97.5C 309.131,106.351 294.464,114.685 279.5,122.5C 292.833,113.5 306.167,104.5 319.5,95.5 Z M 335.5,102.5 C 336.71,102.932 337.71,103.599 338.5,104.5C 324.834,113.002 310.834,121.002 296.5,128.5C 309.328,119.585 322.328,110.919 335.5,102.5 Z M 108.5,105.5 C 99.0514,113.065 89.3847,120.398 79.5,127.5C 78.2632,126.035 77.2632,124.368 76.5,122.5C 87.1667,116.833 97.8333,111.167 108.5,105.5 Z M 79.5,145.5 C 80.1495,143.565 80.4828,141.565 80.5,139.5C 97.9978,129.091 115.665,119.258 133.5,110C 115.614,122.103 97.6142,133.936 79.5,145.5 Z M 202.5,110.5 C 202.027,111.906 201.027,112.573 199.5,112.5C 199.973,111.094 200.973,110.427 202.5,110.5 Z M 349.5,110.5 C 350.71,110.932 351.71,111.599 352.5,112.5C 339.635,120.099 326.635,127.432 313.5,134.5C 325.205,126.141 337.205,118.141 349.5,110.5 Z M 399.5,114.5 C 397.539,116.963 395.372,119.297 393,121.5C 392.167,120.667 391.333,119.833 390.5,119C 393.411,117.239 396.411,115.739 399.5,114.5 Z M 437.5,115.5 C 437.5,116.5 437.5,117.5 437.5,118.5C 436.167,118.833 434.833,119.167 433.5,119.5C 434.5,117.833 435.833,116.5 437.5,115.5 Z M 362.5,119.5 C 363.71,119.932 364.71,120.599 365.5,121.5C 353.167,128.167 340.833,134.833 328.5,141.5C 339.485,133.671 350.818,126.338 362.5,119.5 Z M 277.5,123.5 C 277.027,124.906 276.027,125.573 274.5,125.5C 274.973,124.094 275.973,123.427 277.5,123.5 Z M 411.5,125.5 C 408.167,129.5 404.5,133.167 400.5,136.5C 399.833,136.5 399.5,136.167 399.5,135.5C 401.925,130.419 405.925,127.086 411.5,125.5 Z M 296.5,128.5 C 295.341,130.25 293.674,131.25 291.5,131.5C 292.659,129.75 294.326,128.75 296.5,128.5 Z M 313.5,134.5 C 313.027,135.906 312.027,136.573 310.5,136.5C 310.973,135.094 311.973,134.427 313.5,134.5 Z M 328.5,141.5 C 328.027,142.906 327.027,143.573 325.5,143.5C 325.973,142.094 326.973,141.427 328.5,141.5 Z M 136.5,142.5 C 136.027,143.906 135.027,144.573 133.5,144.5C 133.973,143.094 134.973,142.427 136.5,142.5 Z M 388.5,143.5 C 389.167,144.5 389.833,145.5 390.5,146.5C 380.5,151.833 370.5,157.167 360.5,162.5C 369.45,155.685 378.783,149.351 388.5,143.5 Z M 133.5,144.5 C 125.695,150.906 117.361,156.572 108.5,161.5C 109.752,159.999 110.752,158.332 111.5,156.5C 118.597,152.07 125.931,148.07 133.5,144.5 Z M 396.5,154.5 C 397.167,154.5 397.5,154.833 397.5,155.5C 394.76,157.56 391.76,159.226 388.5,160.5C 390.86,158.147 393.527,156.147 396.5,154.5 Z M 72.5,163.5 C 72.0269,164.906 71.0269,165.573 69.5,165.5C 69.5,165.167 69.5,164.833 69.5,164.5C 70.391,163.89 71.391,163.557 72.5,163.5 Z M 444.5,173.5 C 445.338,173.842 445.672,174.508 445.5,175.5C 444.71,176.401 443.71,177.068 442.5,177.5C 442.733,175.938 443.4,174.605 444.5,173.5 Z M 408.5,175.5 C 409.401,176.29 410.068,177.29 410.5,178.5C 402.068,183.597 393.402,188.264 384.5,192.5C 391.939,186.063 399.939,180.397 408.5,175.5 Z M 80.5,191.5 C 79.962,193.117 79.6287,194.784 79.5,196.5C 69.9941,202.087 60.3274,207.42 50.5,212.5C 54.4665,208.236 57.1332,203.236 58.5,197.5C 64.6856,194.823 70.5189,191.489 76,187.5C 76.7475,189.751 78.2475,191.084 80.5,191.5 Z M 384.5,192.5 C 384.027,193.906 383.027,194.573 381.5,194.5C 381.973,193.094 382.973,192.427 384.5,192.5 Z M 421.5,209.5 C 421.5,209.833 421.5,210.167 421.5,210.5C 420.486,211.674 419.153,212.34 417.5,212.5C 418.436,211.026 419.77,210.026 421.5,209.5 Z M 119.5,211.5 C 112.167,216.5 104.833,221.5 97.5,226.5C 96.8333,226.5 96.1667,226.5 95.5,226.5C 94.8333,226.5 94.1667,226.5 93.5,226.5C 101.832,220.998 110.499,215.998 119.5,211.5 Z M 50.5,212.5 C 50.0269,213.906 49.0269,214.573 47.5,214.5C 47.9731,213.094 48.9731,212.427 50.5,212.5 Z M 459.5,213.5 C 460.167,213.5 460.5,213.833 460.5,214.5C 459.833,214.833 459.167,215.167 458.5,215.5C 458.328,214.508 458.662,213.842 459.5,213.5 Z M 141.5,214.5 C 141.027,215.906 140.027,216.573 138.5,216.5C 138.973,215.094 139.973,214.427 141.5,214.5 Z M 138.5,216.5 C 134.833,219.167 131.167,221.833 127.5,224.5C 126.5,224.5 125.5,224.5 124.5,224.5C 128.833,221.331 133.5,218.664 138.5,216.5 Z M 162.5,218.5 C 161.341,220.25 159.674,221.25 157.5,221.5C 158.659,219.75 160.326,218.75 162.5,218.5 Z M 38.5,219.5 C 37.3406,221.25 35.674,222.25 33.5,222.5C 33.8333,221.833 34.1667,221.167 34.5,220.5C 35.7079,219.766 37.0413,219.433 38.5,219.5 Z M 472.5,220.5 C 474.701,221.566 477.035,222.233 479.5,222.5C 474.033,226.071 468.367,229.404 462.5,232.5C 465.463,228.202 468.797,224.202 472.5,220.5 Z M 157.5,221.5 C 156.694,222.728 155.694,223.728 154.5,224.5C 153.5,224.5 152.5,224.5 151.5,224.5C 153.181,222.992 155.181,221.992 157.5,221.5 Z M 184.5,221.5 C 183.167,222.833 181.833,224.167 180.5,225.5C 179.5,225.5 178.5,225.5 177.5,225.5C 179.336,223.412 181.669,222.079 184.5,221.5 Z M 162.5,234.5 C 163.167,234.5 163.833,234.5 164.5,234.5C 162.853,236.326 160.853,237.66 158.5,238.5C 159.527,236.806 160.861,235.473 162.5,234.5 Z M 301.5,235.5 C 300.341,237.25 298.674,238.25 296.5,238.5C 297.659,236.75 299.326,235.75 301.5,235.5 Z M 158.5,238.5 C 158.027,239.906 157.027,240.573 155.5,240.5C 155.973,239.094 156.973,238.427 158.5,238.5 Z M 495.5,238.5 C 495.433,239.959 495.766,241.292 496.5,242.5C 492.983,244.424 489.316,246.091 485.5,247.5C 488.808,244.529 492.141,241.529 495.5,238.5 Z M 294.5,239.5 C 294.027,240.906 293.027,241.573 291.5,241.5C 291.973,240.094 292.973,239.427 294.5,239.5 Z M 273.5,250.5 C 274.167,250.5 274.833,250.5 275.5,250.5C 275.027,251.906 274.027,252.573 272.5,252.5C 272.833,251.833 273.167,251.167 273.5,250.5 Z M 388.5,252.5 C 386.819,254.008 384.819,255.008 382.5,255.5C 384,253.821 385.833,252.488 388,251.5C 388.399,251.728 388.565,252.062 388.5,252.5 Z M 429.5,256.5 C 408.782,269.197 387.782,281.53 366.5,293.5C 365.5,293.5 364.5,293.5 363.5,293.5C 381.211,281.806 399.211,270.472 417.5,259.5C 419.027,259.573 420.027,258.906 420.5,257.5C 423.758,256.092 426.924,254.426 430,252.5C 430.195,253.819 430.028,255.153 429.5,256.5 Z M 137.5,253.5 C 137.5,254.167 137.5,254.833 137.5,255.5C 136.609,256.11 135.609,256.443 134.5,256.5C 135.167,255.167 136.167,254.167 137.5,253.5 Z M 382.5,255.5 C 381.341,257.25 379.674,258.25 377.5,258.5C 378.659,256.75 380.326,255.75 382.5,255.5 Z M 497.5,255.5 C 497.5,255.833 497.5,256.167 497.5,256.5C 496.395,257.6 495.062,258.267 493.5,258.5C 494.262,256.738 495.596,255.738 497.5,255.5 Z M 377.5,258.5 C 367.666,265.254 357.333,271.254 346.5,276.5C 355.167,270.833 363.833,265.167 372.5,259.5C 374.216,259.371 375.883,259.038 377.5,258.5 Z M 157.5,260.5 C 157.027,261.906 156.027,262.573 154.5,262.5C 154.973,261.094 155.973,260.427 157.5,260.5 Z M 25.5,263.5 C 25.0269,264.906 24.0269,265.573 22.5,265.5C 22.9731,264.094 23.9731,263.427 25.5,263.5 Z M 22.5,265.5 C 20.7656,268.2 18.4323,270.2 15.5,271.5C 15.5,270.833 15.5,270.167 15.5,269.5C 17.3356,267.412 19.6689,266.079 22.5,265.5 Z M 40.5,271.5 C 35.8333,276.5 31.1667,281.5 26.5,286.5C 23.8908,285.557 21.8908,283.89 20.5,281.5C 27.1667,278.167 33.8333,274.833 40.5,271.5 Z M 495.5,272.5 C 495.037,275.221 494.371,277.888 493.5,280.5C 489.167,282.5 484.833,284.5 480.5,286.5C 485.474,281.861 490.474,277.195 495.5,272.5 Z M 437.5,276.5 C 437.167,277.167 436.833,277.833 436.5,278.5C 427.5,284.336 418.167,289.669 408.5,294.5C 417.655,287.752 427.322,281.752 437.5,276.5 Z M 344.5,277.5 C 344.027,278.906 343.027,279.573 341.5,279.5C 341.973,278.094 342.973,277.427 344.5,277.5 Z M 85.5,279.5 C 81.2354,283.638 76.5687,287.305 71.5,290.5C 71.4431,289.391 71.1098,288.391 70.5,287.5C 75.3682,284.566 80.3682,281.9 85.5,279.5 Z M 441.5,288.5 C 440.058,289.82 439.392,291.486 439.5,293.5C 422.5,302.833 405.5,312.167 388.5,321.5C 405.655,309.752 423.321,298.752 441.5,288.5 Z M 461.5,289.5 C 460.833,290.833 459.833,291.833 458.5,292.5C 458.5,291.833 458.5,291.167 458.5,290.5C 459.391,289.89 460.391,289.557 461.5,289.5 Z M 93.5,292.5 C 85.7341,299.223 77.4008,305.223 68.5,310.5C 68.5674,309.041 68.2341,307.708 67.5,306.5C 76.1667,301.833 84.8333,297.167 93.5,292.5 Z M 406.5,295.5 C 406.027,296.906 405.027,297.573 403.5,297.5C 403.973,296.094 404.973,295.427 406.5,295.5 Z M 401.5,298.5 C 401.027,299.906 400.027,300.573 398.5,300.5C 398.973,299.094 399.973,298.427 401.5,298.5 Z M 348.5,302.5 C 349.167,302.5 349.833,302.5 350.5,302.5C 347.76,304.56 344.76,306.226 341.5,307.5C 343.531,305.478 345.865,303.811 348.5,302.5 Z M 339.5,308.5 C 339.027,309.906 338.027,310.573 336.5,310.5C 336.973,309.094 337.973,308.427 339.5,308.5 Z M 444.5,314.5 C 445.239,314.369 445.906,314.536 446.5,315C 444.84,316.488 443.84,318.321 443.5,320.5C 429.5,328.833 415.5,337.167 401.5,345.5C 399.833,345.5 398.167,345.5 396.5,345.5C 412.464,335.18 428.464,324.847 444.5,314.5 Z M 388.5,321.5 C 387.341,323.25 385.674,324.25 383.5,324.5C 384.659,322.75 386.326,321.75 388.5,321.5 Z M 446.5,331.5 C 445.766,332.708 445.433,334.041 445.5,335.5C 431.301,343.766 416.968,351.766 402.5,359.5C 416.82,349.67 431.487,340.337 446.5,331.5 Z M 380.5,354.5 C 381.833,354.5 383.167,354.5 384.5,354.5C 379.498,358.003 374.165,361.003 368.5,363.5C 372.5,360.5 376.5,357.5 380.5,354.5 Z M 85.5,358.5 C 85.0269,359.906 84.0269,360.573 82.5,360.5C 82.9731,359.094 83.9731,358.427 85.5,358.5 Z M 444.5,358.5 C 444.5,359.5 444.5,360.5 444.5,361.5C 436.483,365.862 428.483,370.195 420.5,374.5C 428.205,368.808 436.205,363.474 444.5,358.5 Z M 402.5,359.5 C 401.341,361.25 399.674,362.25 397.5,362.5C 398.659,360.75 400.326,359.75 402.5,359.5 Z M 82.5,360.5 C 76.7949,364.859 70.7949,368.859 64.5,372.5C 64.5,371.5 64.5,370.5 64.5,369.5C 70.5,366.5 76.5,363.5 82.5,360.5 Z M 368.5,363.5 C 367.341,365.25 365.674,366.25 363.5,366.5C 364.659,364.75 366.326,363.75 368.5,363.5 Z M 89.5,370.5 C 89.5,370.833 89.5,371.167 89.5,371.5C 87.9505,372.441 86.2838,373.107 84.5,373.5C 85.6594,371.75 87.326,370.75 89.5,370.5 Z M 84.5,373.5 C 77.7089,378.402 70.7089,383.068 63.5,387.5C 63.5,386.5 63.5,385.5 63.5,384.5C 70.3691,380.566 77.3691,376.899 84.5,373.5 Z M 420.5,374.5 C 419.341,376.25 417.674,377.25 415.5,377.5C 416.659,375.75 418.326,374.75 420.5,374.5 Z M 443.5,374.5 C 443.5,376.833 443.5,379.167 443.5,381.5C 424.5,391.664 405.833,402.331 387.5,413.5C 386.833,413.5 386.167,413.5 385.5,413.5C 404.451,400.018 423.785,387.018 443.5,374.5 Z M 443.5,393.5 C 443.5,394.167 443.5,394.833 443.5,395.5C 438.632,398.434 433.632,401.1 428.5,403.5C 432.976,399.425 437.976,396.092 443.5,393.5 Z M 428.5,403.5 C 428.027,404.906 427.027,405.573 425.5,405.5C 425.973,404.094 426.973,403.427 428.5,403.5 Z M 65.5,409.5 C 65.0269,410.906 64.0269,411.573 62.5,411.5C 62.5,411.167 62.5,410.833 62.5,410.5C 63.391,409.89 64.391,409.557 65.5,409.5 Z M 105.5,412.5 C 106.167,412.5 106.5,412.833 106.5,413.5C 92.3051,422.429 77.9717,431.096 63.5,439.5C 63.5,438.167 63.5,436.833 63.5,435.5C 77.5,427.833 91.5,420.167 105.5,412.5 Z M 70.5,419.5 C 70.0269,420.906 69.0269,421.573 67.5,421.5C 67.9731,420.094 68.9731,419.427 70.5,419.5 Z M 67.5,421.5 C 66.3406,423.25 64.674,424.25 62.5,424.5C 62.5,424.167 62.5,423.833 62.5,423.5C 64.0495,422.559 65.7162,421.893 67.5,421.5 Z M 123.5,427.5 C 124.71,427.932 125.71,428.599 126.5,429.5C 107.149,441.194 87.816,452.86 68.5,464.5C 67.7659,463.292 67.4326,461.959 67.5,460.5C 86.2022,449.485 104.869,438.485 123.5,427.5 Z M 443.5,429.5 C 444.15,431.435 444.483,433.435 444.5,435.5C 434.327,441.421 423.994,447.087 413.5,452.5C 413.5,452.167 413.5,451.833 413.5,451.5C 423.5,444.167 433.5,436.833 443.5,429.5 Z M 226.5,440.5 C 225.341,442.25 223.674,443.25 221.5,443.5C 222.659,441.75 224.326,440.75 226.5,440.5 Z M 221.5,443.5 C 211.212,450.984 200.546,457.984 189.5,464.5C 187.833,464.5 186.167,464.5 184.5,464.5C 196.572,457.108 208.905,450.108 221.5,443.5 Z M 156.5,452.5 C 155.341,454.25 153.674,455.25 151.5,455.5C 152.659,453.75 154.326,452.75 156.5,452.5 Z M 151.5,455.5 C 145.833,459.5 140.167,463.5 134.5,467.5C 133.167,467.5 131.833,467.5 130.5,467.5C 137.004,462.745 144.004,458.745 151.5,455.5 Z M 300.5,455.5 C 301.5,455.5 302.5,455.5 303.5,455.5C 282.327,469.586 261.327,483.919 240.5,498.5C 236.167,498.5 231.833,498.5 227.5,498.5C 251.669,483.915 276.002,469.581 300.5,455.5 Z M 119.5,459.5 C 118.341,461.25 116.674,462.25 114.5,462.5C 115.659,460.75 117.326,459.75 119.5,459.5 Z M 220.5,461.5 C 219.341,463.25 217.674,464.25 215.5,464.5C 216.659,462.75 218.326,461.75 220.5,461.5 Z M 114.5,462.5 C 102.536,470.153 90.5364,477.82 78.5,485.5C 78.1667,484.833 77.8333,484.167 77.5,483.5C 89.5716,476.108 101.905,469.108 114.5,462.5 Z M 215.5,464.5 C 214.055,466.063 212.389,467.396 210.5,468.5C 210.5,468.167 210.5,467.833 210.5,467.5C 211.659,465.75 213.326,464.75 215.5,464.5 Z M 130.5,467.5 C 130.5,468.167 130.5,468.833 130.5,469.5C 117.139,477.511 103.806,485.511 90.5,493.5C 89.391,493.443 88.391,493.11 87.5,492.5C 101.334,483.413 115.667,475.079 130.5,467.5 Z M 375.5,467.5 C 362.167,477.833 348.833,488.167 335.5,498.5C 330.833,498.5 326.167,498.5 321.5,498.5C 339.166,487.664 357.166,477.331 375.5,467.5 Z M 201.5,471.5 C 202.5,471.5 203.5,471.5 204.5,471.5C 191.005,480.749 177.338,489.749 163.5,498.5C 161.167,498.5 158.833,498.5 156.5,498.5C 171.334,489.248 186.334,480.248 201.5,471.5 Z M 169.5,472.5 C 171.833,472.5 174.167,472.5 176.5,472.5C 163.167,481.167 149.833,489.833 136.5,498.5C 132.833,498.5 129.167,498.5 125.5,498.5C 140.167,489.833 154.833,481.167 169.5,472.5 Z M 243.5,474.5 C 242.341,476.25 240.674,477.25 238.5,477.5C 239.659,475.75 241.326,474.75 243.5,474.5 Z M 238.5,477.5 C 228.34,484.747 218.006,491.747 207.5,498.5C 205.5,498.5 203.5,498.5 201.5,498.5C 213.572,491.108 225.905,484.108 238.5,477.5 Z M 294.5,478.5 C 294.027,479.906 293.027,480.573 291.5,480.5C 291.973,479.094 292.973,478.427 294.5,478.5 Z M 291.5,480.5 C 282.833,486.5 274.167,492.5 265.5,498.5C 263.5,498.5 261.5,498.5 259.5,498.5C 269.835,491.997 280.502,485.997 291.5,480.5 Z M 420.5,482.5 C 415.167,488.167 409.833,493.833 404.5,499.5C 400.566,498.64 396.566,498.307 392.5,498.5C 401.5,492.664 410.833,487.331 420.5,482.5 Z M 115.5,491.5 C 115.027,492.906 114.027,493.573 112.5,493.5C 112.973,492.094 113.973,491.427 115.5,491.5 Z M 112.5,493.5 C 111.341,495.25 109.674,496.25 107.5,496.5C 108.659,494.75 110.326,493.75 112.5,493.5 Z M 107.5,496.5 C 107.167,497.167 106.833,497.833 106.5,498.5C 105.508,498.672 104.842,498.338 104.5,497.5C 105.391,496.89 106.391,496.557 107.5,496.5 Z"/></g>
<g><path style="opacity:0.93" fill="#484f8c" d="M 251.5,10.5 C 257.069,10.376 262.402,11.0427 267.5,12.5C 252.331,22.2549 236.664,31.2549 220.5,39.5C 222.5,32.3337 225,25.3337 228,18.5C 231.355,14.6302 235.521,12.2969 240.5,11.5C 238.807,14.1841 237.14,16.8508 235.5,19.5C 241.165,17.0031 246.498,14.0031 251.5,10.5 Z"/></g>
<g><path style="opacity:0.971" fill="#484f8c" d="M 276.5,14.5 C 280.504,16.163 282.837,19.163 283.5,23.5C 264.482,35.3395 245.815,47.6728 227.5,60.5C 247.131,50.0179 266.464,39.0179 285.5,27.5C 287.428,31.2854 288.762,35.2854 289.5,39.5C 285.808,42.8617 282.141,46.1951 278.5,49.5C 282.5,47.5 286.5,45.5 290.5,43.5C 291.933,44.8333 293.267,46.3333 294.5,48C 300.072,51.0122 305.739,53.5122 311.5,55.5C 310.559,57.7721 309.226,59.7721 307.5,61.5C 310.14,60.1799 312.807,58.8466 315.5,57.5C 324.734,59.2785 333.734,61.9451 342.5,65.5C 343.298,65.9569 343.631,66.6236 343.5,67.5C 341.412,69.3356 340.079,71.6689 339.5,74.5C 342.669,73.0834 345.669,71.4168 348.5,69.5C 353.197,71.1775 357.197,73.8442 360.5,77.5C 358.251,79.3307 357.085,81.6641 357,84.5C 359.479,82.6859 361.979,81.0192 364.5,79.5C 367.85,79.665 371.183,79.4983 374.5,79C 382.05,75.3916 389.717,72.0582 397.5,69C 399.712,68.2109 401.712,68.3775 403.5,69.5C 400.474,72.1954 397.474,74.8621 394.5,77.5C 399.5,75.3357 404.167,72.669 408.5,69.5C 412.992,70.3465 416.325,72.6798 418.5,76.5C 417.167,77.1667 416.167,78.1667 415.5,79.5C 417.153,79.3404 418.486,78.6737 419.5,77.5C 421.833,80.5 424.5,83.1667 427.5,85.5C 430.442,87.4822 433.108,90.4822 435.5,94.5C 431.167,98.1667 427.167,102.167 423.5,106.5C 428.167,104.167 432.833,101.833 437.5,99.5C 439.739,104.253 440.072,109.253 438.5,114.5C 437.833,114.5 437.5,114.833 437.5,115.5C 435.833,116.5 434.5,117.833 433.5,119.5C 434.833,119.167 436.167,118.833 437.5,118.5C 435.016,125.297 432.683,132.13 430.5,139C 432.135,146.404 434.468,153.571 437.5,160.5C 437.062,160.435 436.728,160.601 436.5,161C 437.624,161.249 438.624,161.749 439.5,162.5C 441.683,165.99 443.35,169.657 444.5,173.5C 443.4,174.605 442.733,175.938 442.5,177.5C 443.71,177.068 444.71,176.401 445.5,175.5C 451.211,183.472 454.044,192.472 454,202.5C 455.86,206.22 457.693,209.886 459.5,213.5C 458.662,213.842 458.328,214.508 458.5,215.5C 459.167,215.167 459.833,214.833 460.5,214.5C 464.776,215.971 468.776,217.971 472.5,220.5C 468.797,224.202 465.463,228.202 462.5,232.5C 468.367,229.404 474.033,226.071 479.5,222.5C 487.824,224.824 493.157,230.157 495.5,238.5C 492.141,241.529 488.808,244.529 485.5,247.5C 489.316,246.091 492.983,244.424 496.5,242.5C 497.899,246.706 498.232,251.039 497.5,255.5C 495.596,255.738 494.262,256.738 493.5,258.5C 495.062,258.267 496.395,257.6 497.5,256.5C 498.152,257.449 498.486,258.615 498.5,260C 498.182,264.461 497.182,268.628 495.5,272.5C 490.474,277.195 485.474,281.861 480.5,286.5C 484.833,284.5 489.167,282.5 493.5,280.5C 492.432,283.075 490.765,285.242 488.5,287C 482.032,289.933 475.366,292.267 468.5,294C 465.088,295.455 461.921,297.288 459,299.5C 458.503,297.19 458.337,294.857 458.5,292.5C 459.833,291.833 460.833,290.833 461.5,289.5C 460.391,289.557 459.391,289.89 458.5,290.5C 458.539,280.116 457.872,269.783 456.5,259.5C 453.244,249.999 447.744,241.999 440,235.5C 436.93,204.617 426.93,176.284 410,150.5C 406.055,146.249 402.888,141.582 400.5,136.5C 404.5,133.167 408.167,129.5 411.5,125.5C 405.925,127.086 401.925,130.419 399.5,135.5C 391.528,128.863 383.861,121.863 376.5,114.5C 363.761,105.466 350.428,97.4659 336.5,90.5C 338.769,89.0242 341.102,87.5242 343.5,86C 344.451,85.2825 344.617,84.4491 344,83.5C 340.853,85.6497 337.687,87.6497 334.5,89.5C 329.946,88.4834 325.446,87.1501 321,85.5C 319.97,85.1639 319.47,84.4972 319.5,83.5C 307.885,81.3409 296.218,79.1742 284.5,77C 275.979,76.5403 267.646,75.707 259.5,74.5C 259.833,73.8333 260.167,73.1667 260.5,72.5C 258.847,72.6596 257.514,73.3263 256.5,74.5C 248.197,75.4027 239.864,76.0694 231.5,76.5C 235.268,73.7746 239.268,71.2746 243.5,69C 247.37,65.2977 251.037,61.4643 254.5,57.5C 244.102,62.0208 234.769,68.0208 226.5,75.5C 225.833,75.5 225.5,75.8333 225.5,76.5C 224.833,76.5 224.5,76.8333 224.5,77.5C 155.454,89.2418 107.454,127.242 80.5,191.5C 78.2475,191.084 76.7475,189.751 76,187.5C 70.5189,191.489 64.6856,194.823 58.5,197.5C 58.2424,185.941 61.5757,175.608 68.5,166.5C 69.1667,166.5 69.5,166.167 69.5,165.5C 71.0269,165.573 72.0269,164.906 72.5,163.5C 71.391,163.557 70.391,163.89 69.5,164.5C 72.5658,158.036 75.8991,151.702 79.5,145.5C 97.6142,133.936 115.614,122.103 133.5,110C 115.665,119.258 97.9978,129.091 80.5,139.5C 80.4955,135.466 80.1621,131.466 79.5,127.5C 89.3847,120.398 99.0514,113.065 108.5,105.5C 97.8333,111.167 87.1667,116.833 76.5,122.5C 70.9119,114.561 69.4119,105.894 72,96.5C 78.1266,88.7046 84.6266,81.2046 91.5,74C 95.6745,69.9126 100.675,68.0793 106.5,68.5C 105.5,69.8333 104.5,71.1667 103.5,72.5C 105.434,71.8897 107.101,70.8897 108.5,69.5C 115.909,72.2816 123.409,74.9483 131,77.5C 131.945,77.9054 132.612,78.572 133,79.5C 133.399,79.2716 133.565,78.9382 133.5,78.5C 137.182,78.6653 140.848,78.4986 144.5,78C 158.787,68.625 174.12,61.4584 190.5,56.5C 178.348,66.4079 166.015,76.0746 153.5,85.5C 194.763,62.2248 235.763,38.5582 276.5,14.5 Z M 254.5,57.5 C 251.037,61.4643 247.37,65.2977 243.5,69C 239.268,71.2746 235.268,73.7746 231.5,76.5C 229.585,76.7845 227.919,76.4511 226.5,75.5C 234.769,68.0208 244.102,62.0208 254.5,57.5 Z M 227.5,60.5 C 227.027,61.9063 226.027,62.573 224.5,62.5C 224.973,61.0937 225.973,60.427 227.5,60.5 Z M 288.5,67.5 C 288.369,68.2389 288.536,68.9056 289,69.5C 291.168,68.1776 291.001,67.5109 288.5,67.5 Z M 106.5,68.5 C 107.167,68.8333 107.833,69.1667 108.5,69.5C 107.101,70.8897 105.434,71.8897 103.5,72.5C 104.5,71.1667 105.5,69.8333 106.5,68.5 Z M 403.5,69.5 C 405.167,69.5 406.833,69.5 408.5,69.5C 404.167,72.669 399.5,75.3357 394.5,77.5C 397.474,74.8621 400.474,72.1954 403.5,69.5 Z M 260.5,72.5 C 260.167,73.1667 259.833,73.8333 259.5,74.5C 258.5,74.5 257.5,74.5 256.5,74.5C 257.514,73.3263 258.847,72.6596 260.5,72.5 Z M 326.5,75.5 C 325.541,79.4465 323.208,82.1131 319.5,83.5C 321.562,81.63 322.895,79.2967 323.5,76.5C 324.417,75.8728 325.417,75.5394 326.5,75.5 Z M 360.5,77.5 C 362.153,77.6596 363.486,78.3263 364.5,79.5C 361.979,81.0192 359.479,82.6859 357,84.5C 357.085,81.6641 358.251,79.3307 360.5,77.5 Z M 249.5,83.5 C 234.331,93.2549 218.664,102.255 202.5,110.5C 214.5,101.833 226.5,93.1667 238.5,84.5C 242.135,83.8857 245.802,83.5524 249.5,83.5 Z M 336.5,90.5 C 335.833,90.1667 335.167,89.8333 334.5,89.5C 337.687,87.6497 340.853,85.6497 344,83.5C 344.617,84.4491 344.451,85.2825 343.5,86C 341.102,87.5242 338.769,89.0242 336.5,90.5 Z M 270.5,84.5 C 271.167,84.5 271.833,84.5 272.5,84.5C 269.76,86.5595 266.76,88.2262 263.5,89.5C 265.531,87.4776 267.865,85.8109 270.5,84.5 Z M 289.5,87.5 C 290.167,87.5 290.833,87.5 291.5,87.5C 289.819,89.0075 287.819,90.0075 285.5,90.5C 286.436,89.0256 287.77,88.0256 289.5,87.5 Z M 285.5,90.5 C 285.027,91.9063 284.027,92.573 282.5,92.5C 282.973,91.0937 283.973,90.427 285.5,90.5 Z M 280.5,93.5 C 280.027,94.9063 279.027,95.573 277.5,95.5C 277.973,94.0937 278.973,93.427 280.5,93.5 Z M 319.5,95.5 C 321.153,95.6596 322.486,96.3263 323.5,97.5C 309.131,106.351 294.464,114.685 279.5,122.5C 292.833,113.5 306.167,104.5 319.5,95.5 Z M 335.5,102.5 C 336.71,102.932 337.71,103.599 338.5,104.5C 324.834,113.002 310.834,121.002 296.5,128.5C 309.328,119.585 322.328,110.919 335.5,102.5 Z M 202.5,110.5 C 202.027,111.906 201.027,112.573 199.5,112.5C 199.973,111.094 200.973,110.427 202.5,110.5 Z M 349.5,110.5 C 350.71,110.932 351.71,111.599 352.5,112.5C 339.635,120.099 326.635,127.432 313.5,134.5C 325.205,126.141 337.205,118.141 349.5,110.5 Z M 399.5,114.5 C 396.411,115.739 393.411,117.239 390.5,119C 391.333,119.833 392.167,120.667 393,121.5C 395.372,119.297 397.539,116.963 399.5,114.5 Z M 362.5,119.5 C 363.71,119.932 364.71,120.599 365.5,121.5C 353.167,128.167 340.833,134.833 328.5,141.5C 339.485,133.671 350.818,126.338 362.5,119.5 Z M 277.5,123.5 C 277.027,124.906 276.027,125.573 274.5,125.5C 274.973,124.094 275.973,123.427 277.5,123.5 Z M 411.5,125.5 C 408.167,129.5 404.5,133.167 400.5,136.5C 399.833,136.5 399.5,136.167 399.5,135.5C 401.925,130.419 405.925,127.086 411.5,125.5 Z M 296.5,128.5 C 295.341,130.25 293.674,131.25 291.5,131.5C 292.659,129.75 294.326,128.75 296.5,128.5 Z M 313.5,134.5 C 313.027,135.906 312.027,136.573 310.5,136.5C 310.973,135.094 311.973,134.427 313.5,134.5 Z M 328.5,141.5 C 328.027,142.906 327.027,143.573 325.5,143.5C 325.973,142.094 326.973,141.427 328.5,141.5 Z M 136.5,142.5 C 136.027,143.906 135.027,144.573 133.5,144.5C 133.973,143.094 134.973,142.427 136.5,142.5 Z M 388.5,143.5 C 389.167,144.5 389.833,145.5 390.5,146.5C 380.5,151.833 370.5,157.167 360.5,162.5C 369.45,155.685 378.783,149.351 388.5,143.5 Z M 133.5,144.5 C 125.695,150.906 117.361,156.572 108.5,161.5C 109.752,159.999 110.752,158.332 111.5,156.5C 118.597,152.07 125.931,148.07 133.5,144.5 Z M 396.5,154.5 C 397.167,154.5 397.5,154.833 397.5,155.5C 394.76,157.56 391.76,159.226 388.5,160.5C 390.86,158.147 393.527,156.147 396.5,154.5 Z M 408.5,175.5 C 409.401,176.29 410.068,177.29 410.5,178.5C 402.068,183.597 393.402,188.264 384.5,192.5C 391.939,186.063 399.939,180.397 408.5,175.5 Z M 384.5,192.5 C 384.027,193.906 383.027,194.573 381.5,194.5C 381.973,193.094 382.973,192.427 384.5,192.5 Z"/></g>
<g><path style="opacity:0.716" fill="#474c87" d="M 109.5,60.5 C 105.058,61.1211 100.725,62.1211 96.5,63.5C 98.9903,61.0842 101.99,59.4176 105.5,58.5C 107.171,58.6682 108.504,59.3349 109.5,60.5 Z"/></g>
<g><path style="opacity:0.674" fill="#484e99" d="M 405.5,60.5 C 402.794,60.5751 400.127,60.9084 397.5,61.5C 398.492,59.9735 399.992,59.3068 402,59.5C 403.385,59.5143 404.551,59.8476 405.5,60.5 Z"/></g>
<g><path style="opacity:0.971" fill="#2e325f" d="M 249.5,83.5 C 256.687,83.1755 263.687,83.5088 270.5,84.5C 267.865,85.8109 265.531,87.4776 263.5,89.5C 266.76,88.2262 269.76,86.5595 272.5,84.5C 278.489,84.3671 284.156,85.3671 289.5,87.5C 287.77,88.0256 286.436,89.0256 285.5,90.5C 287.819,90.0075 289.819,89.0075 291.5,87.5C 298.31,88.3692 304.977,89.8692 311.5,92C 314.476,92.7048 317.142,93.8714 319.5,95.5C 306.167,104.5 292.833,113.5 279.5,122.5C 294.464,114.685 309.131,106.351 323.5,97.5C 328.032,98.1052 332.032,99.7719 335.5,102.5C 322.328,110.919 309.328,119.585 296.5,128.5C 310.834,121.002 324.834,113.002 338.5,104.5C 342.997,105.244 346.664,107.244 349.5,110.5C 337.205,118.141 325.205,126.141 313.5,134.5C 326.635,127.432 339.635,120.099 352.5,112.5C 356.913,113.367 360.247,115.7 362.5,119.5C 350.818,126.338 339.485,133.671 328.5,141.5C 340.833,134.833 353.167,128.167 365.5,121.5C 371.391,124.719 376.391,129.052 380.5,134.5C 383.442,136.482 386.108,139.482 388.5,143.5C 378.783,149.351 369.45,155.685 360.5,162.5C 370.5,157.167 380.5,151.833 390.5,146.5C 393.647,148.313 395.647,150.98 396.5,154.5C 393.527,156.147 390.86,158.147 388.5,160.5C 391.76,159.226 394.76,157.56 397.5,155.5C 399.47,157.647 401.303,159.98 403,162.5C 403.617,163.449 403.451,164.282 402.5,165C 406.376,167.387 408.376,170.887 408.5,175.5C 399.939,180.397 391.939,186.063 384.5,192.5C 393.402,188.264 402.068,183.597 410.5,178.5C 416.318,187.947 419.985,198.28 421.5,209.5C 419.77,210.026 418.436,211.026 417.5,212.5C 419.153,212.34 420.486,211.674 421.5,210.5C 423.067,211.681 423.901,213.347 424,215.5C 425.015,219.44 425.515,223.44 425.5,227.5C 415.231,226.151 404.898,225.318 394.5,225C 369.995,224.835 345.661,224.668 321.5,224.5C 322.183,223.356 321.849,223.356 320.5,224.5C 319.508,224.328 318.842,224.662 318.5,225.5C 310.833,225.5 303.167,225.5 295.5,225.5C 295.947,209.497 296.114,193.497 296,177.5C 292.827,152.492 278.661,140.158 253.5,140.5C 236.72,141.819 225.553,150.486 220,166.5C 213.67,185.721 211.836,205.388 214.5,225.5C 203.167,225.5 191.833,225.5 180.5,225.5C 181.833,224.167 183.167,222.833 184.5,221.5C 181.669,222.079 179.336,223.412 177.5,225.5C 169.648,225.825 161.982,225.492 154.5,224.5C 155.694,223.728 156.694,222.728 157.5,221.5C 155.181,221.992 153.181,222.992 151.5,224.5C 143.5,224.5 135.5,224.5 127.5,224.5C 131.167,221.833 134.833,219.167 138.5,216.5C 133.5,218.664 128.833,221.331 124.5,224.5C 115.523,225.322 106.523,225.989 97.5,226.5C 104.833,221.5 112.167,216.5 119.5,211.5C 110.499,215.998 101.832,220.998 93.5,226.5C 91.6203,226.229 90.287,226.896 89.5,228.5C 87.8828,229.038 86.2161,229.371 84.5,229.5C 85.3264,220.194 87.3264,211.194 90.5,202.5C 91.1667,202.5 91.5,202.167 91.5,201.5C 91.4937,195.505 93.4937,189.505 97.5,183.5C 100.167,183.167 100.167,182.833 97.5,182.5C 99.859,174.781 103.526,167.781 108.5,161.5C 117.361,156.572 125.695,150.906 133.5,144.5C 125.931,148.07 118.597,152.07 111.5,156.5C 133.796,122.495 164.796,100.495 204.5,90.5C 204.833,91.8333 205.167,91.8333 205.5,90.5C 206.492,90.6716 207.158,90.3382 207.5,89.5C 217.467,85.7835 227.8,84.1168 238.5,84.5C 226.5,93.1667 214.5,101.833 202.5,110.5C 218.664,102.255 234.331,93.2549 249.5,83.5 Z M 270.5,84.5 C 271.167,84.5 271.833,84.5 272.5,84.5C 269.76,86.5595 266.76,88.2262 263.5,89.5C 265.531,87.4776 267.865,85.8109 270.5,84.5 Z M 289.5,87.5 C 290.167,87.5 290.833,87.5 291.5,87.5C 289.819,89.0075 287.819,90.0075 285.5,90.5C 286.436,89.0256 287.77,88.0256 289.5,87.5 Z M 285.5,90.5 C 285.027,91.9063 284.027,92.573 282.5,92.5C 282.973,91.0937 283.973,90.427 285.5,90.5 Z M 280.5,93.5 C 280.027,94.9063 279.027,95.573 277.5,95.5C 277.973,94.0937 278.973,93.427 280.5,93.5 Z M 202.5,110.5 C 202.027,111.906 201.027,112.573 199.5,112.5C 199.973,111.094 200.973,110.427 202.5,110.5 Z M 277.5,123.5 C 277.027,124.906 276.027,125.573 274.5,125.5C 274.973,124.094 275.973,123.427 277.5,123.5 Z M 296.5,128.5 C 295.341,130.25 293.674,131.25 291.5,131.5C 292.659,129.75 294.326,128.75 296.5,128.5 Z M 313.5,134.5 C 313.027,135.906 312.027,136.573 310.5,136.5C 310.973,135.094 311.973,134.427 313.5,134.5 Z M 328.5,141.5 C 328.027,142.906 327.027,143.573 325.5,143.5C 325.973,142.094 326.973,141.427 328.5,141.5 Z M 136.5,142.5 C 136.027,143.906 135.027,144.573 133.5,144.5C 133.973,143.094 134.973,142.427 136.5,142.5 Z M 384.5,192.5 C 384.027,193.906 383.027,194.573 381.5,194.5C 381.973,193.094 382.973,192.427 384.5,192.5 Z M 119.5,211.5 C 112.167,216.5 104.833,221.5 97.5,226.5C 96.8333,226.5 96.1667,226.5 95.5,226.5C 94.8333,226.5 94.1667,226.5 93.5,226.5C 101.832,220.998 110.499,215.998 119.5,211.5 Z M 141.5,214.5 C 141.027,215.906 140.027,216.573 138.5,216.5C 138.973,215.094 139.973,214.427 141.5,214.5 Z M 138.5,216.5 C 134.833,219.167 131.167,221.833 127.5,224.5C 126.5,224.5 125.5,224.5 124.5,224.5C 128.833,221.331 133.5,218.664 138.5,216.5 Z M 162.5,218.5 C 161.341,220.25 159.674,221.25 157.5,221.5C 158.659,219.75 160.326,218.75 162.5,218.5 Z M 157.5,221.5 C 156.694,222.728 155.694,223.728 154.5,224.5C 153.5,224.5 152.5,224.5 151.5,224.5C 153.181,222.992 155.181,221.992 157.5,221.5 Z M 184.5,221.5 C 183.167,222.833 181.833,224.167 180.5,225.5C 179.5,225.5 178.5,225.5 177.5,225.5C 179.336,223.412 181.669,222.079 184.5,221.5 Z"/></g>
<g><path style="opacity:1" fill="#3a3f68" d="M 249.5,149.5 C 252.833,148.167 256.167,148.167 259.5,149.5C 254.945,152.029 250.445,154.696 246,157.5C 246.893,154.564 248.726,152.064 251.5,150C 250.906,149.536 250.239,149.369 249.5,149.5 Z"/></g>
<g><path style="opacity:1" fill="#bdd7ed" d="M 249.5,149.5 C 250.239,149.369 250.906,149.536 251.5,150C 248.726,152.064 246.893,154.564 246,157.5C 250.445,154.696 254.945,152.029 259.5,149.5C 263.259,149.862 266.593,151.195 269.5,153.5C 266.715,157.116 263.381,160.282 259.5,163C 263.993,161.42 268.326,159.254 272.5,156.5C 275.192,158.203 277.192,160.536 278.5,163.5C 275.671,166.159 272.671,168.659 269.5,171C 272.735,169.97 275.901,168.47 279,166.5C 281.22,168.647 282.387,171.314 282.5,174.5C 278.023,179.434 273.023,183.934 267.5,188C 272.863,185.53 278.196,182.697 283.5,179.5C 283.774,184.263 283.441,188.93 282.5,193.5C 275.998,199.166 269.331,204.666 262.5,210C 269.196,206.864 275.863,203.364 282.5,199.5C 283.647,203.646 283.814,207.98 283,212.5C 279.535,214.963 276.369,217.796 273.5,221C 277.215,219.89 280.715,218.057 284,215.5C 285.182,223.147 284.182,230.48 281,237.5C 279.833,238.667 278.667,239.833 277.5,241C 267.764,242.347 257.931,243.18 248,243.5C 243.682,243.604 239.515,242.937 235.5,241.5C 242.571,237.099 249.238,231.932 255.5,226C 252.525,226.979 249.525,228.312 246.5,230C 242.569,233.771 238.236,236.938 233.5,239.5C 232.504,239.586 231.671,239.252 231,238.5C 230.281,234.855 229.781,231.188 229.5,227.5C 235.961,222.209 242.295,216.709 248.5,211C 242.034,213.566 235.7,216.733 229.5,220.5C 228.817,220.137 228.15,219.804 227.5,219.5C 227.5,217.833 227.5,216.167 227.5,214.5C 227.34,212.801 227.506,211.134 228,209.5C 232.546,205.286 237.379,201.453 242.5,198C 236.844,199.998 231.51,202.831 226.5,206.5C 226.334,202.486 226.501,198.486 227,194.5C 228.925,193.12 230.759,191.62 232.5,190C 230.544,190.222 228.71,191.055 227,192.5C 226.502,189.518 226.335,186.518 226.5,183.5C 226.744,180.737 228.077,178.571 230.5,177C 229.551,176.383 228.718,176.549 228,177.5C 228.677,163.133 235.843,153.8 249.5,149.5 Z"/></g>
<g><path style="opacity:1" fill="#404670" d="M 269.5,153.5 C 270.833,154.167 271.833,155.167 272.5,156.5C 268.326,159.254 263.993,161.42 259.5,163C 263.381,160.282 266.715,157.116 269.5,153.5 Z"/></g>
<g><path style="opacity:1" fill="#29292a" d="M 255.5,176.5 C 257.5,176.5 259.5,176.5 261.5,176.5C 261.665,179.85 261.498,183.183 261,186.5C 257.527,188.823 253.694,189.823 249.5,189.5C 249.335,186.15 249.502,182.817 250,179.5C 251.719,178.131 253.552,177.131 255.5,176.5 Z"/></g>
<g><path style="opacity:1" fill="#3a406a" d="M 282.5,174.5 C 283.451,175.919 283.784,177.585 283.5,179.5C 278.196,182.697 272.863,185.53 267.5,188C 273.023,183.934 278.023,179.434 282.5,174.5 Z"/></g>
<g><path style="opacity:1" fill="#576078" d="M 226.5,183.5 C 226.335,186.518 226.502,189.518 227,192.5C 228.71,191.055 230.544,190.222 232.5,190C 230.759,191.62 228.925,193.12 227,194.5C 226.501,198.486 226.334,202.486 226.5,206.5C 225.167,198.833 225.167,191.167 226.5,183.5 Z"/></g>
<g><path style="opacity:1" fill="#383d69" d="M 282.5,193.5 C 282.5,195.5 282.5,197.5 282.5,199.5C 275.863,203.364 269.196,206.864 262.5,210C 269.331,204.666 275.998,199.166 282.5,193.5 Z"/></g>
<g><path style="opacity:0.98" fill="#484f8d" d="M 79.5,196.5 C 74.9577,209.784 72.1244,223.451 71,237.5C 59.7886,245.916 53.7886,257.249 53,271.5C 52.6667,280.5 52.3333,289.5 52,298.5C 47.4307,295.304 42.9307,292.971 38.5,291.5C 34.0986,290.594 30.0986,288.928 26.5,286.5C 31.1667,281.5 35.8333,276.5 40.5,271.5C 33.8333,274.833 27.1667,278.167 20.5,281.5C 17.711,278.844 16.0444,275.511 15.5,271.5C 18.4323,270.2 20.7656,268.2 22.5,265.5C 19.6689,266.079 17.3356,267.412 15.5,269.5C 13.9891,267.524 13.1558,265.191 13,262.5C 12.2185,257.083 12.3852,251.75 13.5,246.5C 14.8333,246.167 14.8333,245.833 13.5,245.5C 13.0524,230.632 20.0524,222.299 34.5,220.5C 34.1667,221.167 33.8333,221.833 33.5,222.5C 35.674,222.25 37.3406,221.25 38.5,219.5C 39.4916,219.672 40.1583,219.338 40.5,218.5C 41.4916,218.672 42.1583,218.338 42.5,217.5C 43.1667,217.5 43.5,217.167 43.5,216.5C 44.4916,216.672 45.1583,216.338 45.5,215.5C 46.4916,215.672 47.1583,215.338 47.5,214.5C 49.0269,214.573 50.0269,213.906 50.5,212.5C 60.3274,207.42 69.9941,202.087 79.5,196.5 Z M 25.5,263.5 C 25.0269,264.906 24.0269,265.573 22.5,265.5C 22.9731,264.094 23.9731,263.427 25.5,263.5 Z"/></g>
<g><path style="opacity:1" fill="#41476f" d="M 227.5,214.5 C 226.527,212.052 226.194,209.385 226.5,206.5C 231.51,202.831 236.844,199.998 242.5,198C 237.379,201.453 232.546,205.286 228,209.5C 227.506,211.134 227.34,212.801 227.5,214.5 Z"/></g>
<g><path style="opacity:1" fill="#383d68" d="M 229.5,227.5 C 228.629,224.997 227.963,222.33 227.5,219.5C 228.15,219.804 228.817,220.137 229.5,220.5C 235.7,216.733 242.034,213.566 248.5,211C 242.295,216.709 235.961,222.209 229.5,227.5 Z"/></g>
<g><path style="opacity:0.953" fill="#b1bbca" d="M 93.5,226.5 C 94.1667,226.5 94.8333,226.5 95.5,226.5C 94.0101,228.28 92.0101,228.946 89.5,228.5C 90.287,226.896 91.6203,226.229 93.5,226.5 Z"/></g>
<g><path style="opacity:1" fill="#3e446e" d="M 235.5,241.5 C 234.5,241.167 233.833,240.5 233.5,239.5C 238.236,236.938 242.569,233.771 246.5,230C 249.525,228.312 252.525,226.979 255.5,226C 249.238,231.932 242.571,237.099 235.5,241.5 Z"/></g>
<g><path style="opacity:1" fill="#767b8b" d="M 334.5,232.5 C 336.978,231.836 339.645,231.503 342.5,231.5C 345.59,231.522 348.257,232.188 350.5,233.5C 348.911,235.306 346.911,236.639 344.5,237.5C 343.304,237.154 343.304,236.654 344.5,236C 346.332,235.252 347.999,234.252 349.5,233C 344.511,232.501 339.511,232.334 334.5,232.5 Z"/></g>
<g><path style="opacity:0.985" fill="#dfecfd" d="M 116.5,232.5 C 117.873,232.343 119.207,232.51 120.5,233C 116.167,236.667 111.833,240.333 107.5,244C 107.833,244.167 108.167,244.333 108.5,244.5C 115.003,240.414 121.67,236.581 128.5,233C 132.152,232.501 135.818,232.335 139.5,232.5C 147.403,232.136 155.07,232.803 162.5,234.5C 160.861,235.473 159.527,236.806 158.5,238.5C 156.973,238.427 155.973,239.094 155.5,240.5C 154.833,240.5 154.5,240.833 154.5,241.5C 154.167,241.5 153.833,241.5 153.5,241.5C 152.833,241.5 152.5,241.833 152.5,242.5C 151.833,242.5 151.5,242.833 151.5,243.5C 150.833,243.833 150.167,244.167 149.5,244.5C 148.833,244.5 148.5,244.833 148.5,245.5C 144.618,247.934 140.952,250.601 137.5,253.5C 136.167,254.167 135.167,255.167 134.5,256.5C 135.609,256.443 136.609,256.11 137.5,255.5C 149.836,249.001 161.836,242.001 173.5,234.5C 179.145,235.134 184.811,235.468 190.5,235.5C 179.5,243.5 168.5,251.5 157.5,259.5C 157.5,259.833 157.5,260.167 157.5,260.5C 157.833,260.5 158.167,260.5 158.5,260.5C 173.5,252.669 188.166,244.336 202.5,235.5C 207.152,235.002 211.819,234.669 216.5,234.5C 217.139,239.264 219.472,243.097 223.5,246C 222.328,246.419 221.328,247.085 220.5,248C 222.163,248.265 223.663,247.765 225,246.5C 233.32,250.66 242.153,252.66 251.5,252.5C 258.903,252.489 266.237,251.823 273.5,250.5C 273.167,251.167 272.833,251.833 272.5,252.5C 274.027,252.573 275.027,251.906 275.5,250.5C 276.492,250.672 277.158,250.338 277.5,249.5C 282.827,247.841 287.493,245.174 291.5,241.5C 293.027,241.573 294.027,240.906 294.5,239.5C 295.492,239.672 296.158,239.338 296.5,238.5C 298.674,238.25 300.341,237.25 301.5,235.5C 302.492,235.672 303.158,235.338 303.5,234.5C 310.351,232.716 317.351,232.05 324.5,232.5C 311.167,241.5 297.833,250.5 284.5,259.5C 283.817,260.644 284.151,260.644 285.5,259.5C 301.788,251.022 317.788,242.022 333.5,232.5C 333.833,232.5 334.167,232.5 334.5,232.5C 339.511,232.334 344.511,232.501 349.5,233C 347.999,234.252 346.332,235.252 344.5,236C 343.304,236.654 343.304,237.154 344.5,237.5C 346.911,236.639 348.911,235.306 350.5,233.5C 351.609,233.443 352.609,233.11 353.5,232.5C 358.511,232.334 363.511,232.501 368.5,233C 357.833,239.667 347.167,246.333 336.5,253C 335.304,253.654 335.304,254.154 336.5,254.5C 349.062,247.392 361.395,240.059 373.5,232.5C 378.833,232.833 384.167,233.167 389.5,233.5C 377.34,241.47 365.007,249.304 352.5,257C 351.304,257.654 351.304,258.154 352.5,258.5C 366.394,250.726 380.061,242.726 393.5,234.5C 398.241,234.735 402.908,235.402 407.5,236.5C 395.662,243.918 383.996,251.585 372.5,259.5C 363.833,265.167 355.167,270.833 346.5,276.5C 357.333,271.254 367.666,265.254 377.5,258.5C 379.674,258.25 381.341,257.25 382.5,255.5C 384.819,255.008 386.819,254.008 388.5,252.5C 397.283,248.609 405.616,243.943 413.5,238.5C 420.511,240.205 426.844,243.205 432.5,247.5C 432.586,248.496 432.252,249.329 431.5,250C 427.42,252.029 423.754,254.529 420.5,257.5C 418.973,257.427 417.973,258.094 417.5,259.5C 399.211,270.472 381.211,281.806 363.5,293.5C 351.212,294.294 338.878,294.794 326.5,295C 321.123,295.672 315.789,296.505 310.5,297.5C 309.289,298.274 309.289,299.107 310.5,300C 323.376,300.043 336.043,300.876 348.5,302.5C 345.865,303.811 343.531,305.478 341.5,307.5C 344.76,306.226 347.76,304.56 350.5,302.5C 359.12,301.724 367.787,301.224 376.5,301C 380.703,300.45 384.703,299.283 388.5,297.5C 387.975,296.808 387.308,296.308 386.5,296C 379.62,295.71 372.954,294.877 366.5,293.5C 387.782,281.53 408.782,269.197 429.5,256.5C 430.117,256.611 430.617,256.944 431,257.5C 432.944,255.779 435.11,254.446 437.5,253.5C 441.455,257.74 444.122,262.74 445.5,268.5C 445.631,269.239 445.464,269.906 445,270.5C 442.312,272.364 439.812,274.364 437.5,276.5C 427.322,281.752 417.655,287.752 408.5,294.5C 418.167,289.669 427.5,284.336 436.5,278.5C 440.302,277.68 443.636,276.014 446.5,273.5C 447.482,276.962 447.815,280.629 447.5,284.5C 446.167,285.167 444.833,285.833 443.5,286.5C 442.833,286.5 442.5,286.833 442.5,287.5C 441.833,287.5 441.5,287.833 441.5,288.5C 423.321,298.752 405.655,309.752 388.5,321.5C 405.5,312.167 422.5,302.833 439.5,293.5C 442.339,291.58 445.339,289.913 448.5,288.5C 448.763,292.6 448.43,296.6 447.5,300.5C 448.405,304.333 448.405,308.333 447.5,312.5C 445.973,312.427 444.973,313.094 444.5,314.5C 428.464,324.847 412.464,335.18 396.5,345.5C 368.497,345.116 340.497,344.949 312.5,345C 302.55,344.806 292.883,346.306 283.5,349.5C 285.547,351.015 287.881,351.849 290.5,352C 296.793,353.023 303.126,353.689 309.5,354C 333.164,354.5 356.831,354.667 380.5,354.5C 376.5,357.5 372.5,360.5 368.5,363.5C 374.165,361.003 379.498,358.003 384.5,354.5C 394.198,353.246 403.864,351.746 413.5,350C 414.925,348.286 414.592,346.953 412.5,346C 408.848,345.501 405.182,345.335 401.5,345.5C 415.5,337.167 429.5,328.833 443.5,320.5C 444.959,320.567 446.292,320.234 447.5,319.5C 446.979,323.481 446.646,327.481 446.5,331.5C 431.487,340.337 416.82,349.67 402.5,359.5C 416.968,351.766 431.301,343.766 445.5,335.5C 445.597,343.191 445.263,350.858 444.5,358.5C 436.205,363.474 428.205,368.808 420.5,374.5C 428.483,370.195 436.483,365.862 444.5,361.5C 444.769,365.931 444.436,370.265 443.5,374.5C 423.785,387.018 404.451,400.018 385.5,413.5C 356.174,412.47 326.841,412.304 297.5,413C 292.681,412.933 288.681,414.6 285.5,418C 285.759,419.261 286.426,420.261 287.5,421C 317.834,421.86 348.167,422.693 378.5,423.5C 385.512,423.166 392.512,422.666 399.5,422C 403.939,421.683 408.105,420.516 412,418.5C 412.595,417.101 412.428,415.768 411.5,414.5C 403.528,413.502 395.528,413.169 387.5,413.5C 405.833,402.331 424.5,391.664 443.5,381.5C 443.5,385.5 443.5,389.5 443.5,393.5C 437.976,396.092 432.976,399.425 428.5,403.5C 433.632,401.1 438.632,398.434 443.5,395.5C 443.975,406.913 443.975,418.247 443.5,429.5C 433.5,436.833 423.5,444.167 413.5,451.5C 412.454,449.46 410.787,448.127 408.5,447.5C 402.695,448.123 396.862,448.456 391,448.5C 366.854,447.073 342.688,446.407 318.5,446.5C 318.167,445.167 317.833,445.167 317.5,446.5C 307.262,445.93 297.262,447.096 287.5,450C 286.167,451.667 286.167,453.333 287.5,455C 291.821,455.499 296.154,455.666 300.5,455.5C 276.002,469.581 251.669,483.915 227.5,498.5C 220.833,498.5 214.167,498.5 207.5,498.5C 218.006,491.747 228.34,484.747 238.5,477.5C 225.905,484.108 213.572,491.108 201.5,498.5C 188.833,498.5 176.167,498.5 163.5,498.5C 177.338,489.749 191.005,480.749 204.5,471.5C 205.492,471.672 206.158,471.338 206.5,470.5C 208.153,470.34 209.486,469.674 210.5,468.5C 212.389,467.396 214.055,466.063 215.5,464.5C 213.326,464.75 211.659,465.75 210.5,467.5C 203.378,466.435 196.378,465.435 189.5,464.5C 200.546,457.984 211.212,450.984 221.5,443.5C 208.905,450.108 196.572,457.108 184.5,464.5C 167.863,465.981 151.196,466.981 134.5,467.5C 140.167,463.5 145.833,459.5 151.5,455.5C 144.004,458.745 137.004,462.745 130.5,467.5C 115.667,475.079 101.334,483.413 87.5,492.5C 83.6367,491.306 80.6367,488.973 78.5,485.5C 90.5364,477.82 102.536,470.153 114.5,462.5C 101.905,469.108 89.5716,476.108 77.5,483.5C 76.5416,483.047 75.7083,482.381 75,481.5C 71.712,476.258 69.5453,470.591 68.5,464.5C 87.816,452.86 107.149,441.194 126.5,429.5C 154.969,441.715 183.303,441.215 211.5,428C 235.156,413.551 248.323,392.384 251,364.5C 254.141,334.629 243.975,310.462 220.5,292C 195.772,277.134 169.438,273.468 141.5,281C 113.359,293.089 96.5254,314.256 91,344.5C 89.9187,353.135 89.4187,361.801 89.5,370.5C 87.326,370.75 85.6594,371.75 84.5,373.5C 77.3691,376.899 70.3691,380.566 63.5,384.5C 63.2367,380.4 63.5701,376.4 64.5,372.5C 70.7949,368.859 76.7949,364.859 82.5,360.5C 76.5,363.5 70.5,366.5 64.5,369.5C 65.6732,349.508 67.0066,329.841 68.5,310.5C 77.4008,305.223 85.7341,299.223 93.5,292.5C 84.8333,297.167 76.1667,301.833 67.5,306.5C 67.5,302.5 67.5,298.5 67.5,294.5C 69.1667,293.5 70.5,292.167 71.5,290.5C 76.5687,287.305 81.2354,283.638 85.5,279.5C 80.3682,281.9 75.3682,284.566 70.5,287.5C 68.7659,288.562 67.0992,288.562 65.5,287.5C 65.3337,280.825 65.5004,274.158 66,267.5C 67.1667,266.333 68.3333,265.167 69.5,264C 67.7174,262.933 67.2174,261.433 68,259.5C 72.686,247.445 81.186,239.945 93.5,237C 92.5,238 91.5,239 90.5,240C 94.6328,238.6 98.6328,236.6 102.5,234C 107.156,233.335 111.823,232.835 116.5,232.5 Z M 162.5,234.5 C 163.167,234.5 163.833,234.5 164.5,234.5C 162.853,236.326 160.853,237.66 158.5,238.5C 159.527,236.806 160.861,235.473 162.5,234.5 Z M 301.5,235.5 C 300.341,237.25 298.674,238.25 296.5,238.5C 297.659,236.75 299.326,235.75 301.5,235.5 Z M 158.5,238.5 C 158.027,239.906 157.027,240.573 155.5,240.5C 155.973,239.094 156.973,238.427 158.5,238.5 Z M 294.5,239.5 C 294.027,240.906 293.027,241.573 291.5,241.5C 291.973,240.094 292.973,239.427 294.5,239.5 Z M 273.5,250.5 C 274.167,250.5 274.833,250.5 275.5,250.5C 275.027,251.906 274.027,252.573 272.5,252.5C 272.833,251.833 273.167,251.167 273.5,250.5 Z M 388.5,252.5 C 386.819,254.008 384.819,255.008 382.5,255.5C 384,253.821 385.833,252.488 388,251.5C 388.399,251.728 388.565,252.062 388.5,252.5 Z M 137.5,253.5 C 137.5,254.167 137.5,254.833 137.5,255.5C 136.609,256.11 135.609,256.443 134.5,256.5C 135.167,255.167 136.167,254.167 137.5,253.5 Z M 382.5,255.5 C 381.341,257.25 379.674,258.25 377.5,258.5C 378.659,256.75 380.326,255.75 382.5,255.5 Z M 377.5,258.5 C 367.666,265.254 357.333,271.254 346.5,276.5C 355.167,270.833 363.833,265.167 372.5,259.5C 374.216,259.371 375.883,259.038 377.5,258.5 Z M 157.5,260.5 C 157.027,261.906 156.027,262.573 154.5,262.5C 154.973,261.094 155.973,260.427 157.5,260.5 Z M 437.5,276.5 C 437.167,277.167 436.833,277.833 436.5,278.5C 427.5,284.336 418.167,289.669 408.5,294.5C 417.655,287.752 427.322,281.752 437.5,276.5 Z M 344.5,277.5 C 344.027,278.906 343.027,279.573 341.5,279.5C 341.973,278.094 342.973,277.427 344.5,277.5 Z M 441.5,288.5 C 440.058,289.82 439.392,291.486 439.5,293.5C 422.5,302.833 405.5,312.167 388.5,321.5C 405.655,309.752 423.321,298.752 441.5,288.5 Z M 406.5,295.5 C 406.027,296.906 405.027,297.573 403.5,297.5C 403.973,296.094 404.973,295.427 406.5,295.5 Z M 401.5,298.5 C 401.027,299.906 400.027,300.573 398.5,300.5C 398.973,299.094 399.973,298.427 401.5,298.5 Z M 348.5,302.5 C 349.167,302.5 349.833,302.5 350.5,302.5C 347.76,304.56 344.76,306.226 341.5,307.5C 343.531,305.478 345.865,303.811 348.5,302.5 Z M 339.5,308.5 C 339.027,309.906 338.027,310.573 336.5,310.5C 336.973,309.094 337.973,308.427 339.5,308.5 Z M 388.5,321.5 C 387.341,323.25 385.674,324.25 383.5,324.5C 384.659,322.75 386.326,321.75 388.5,321.5 Z M 380.5,354.5 C 381.833,354.5 383.167,354.5 384.5,354.5C 379.498,358.003 374.165,361.003 368.5,363.5C 372.5,360.5 376.5,357.5 380.5,354.5 Z M 85.5,358.5 C 85.0269,359.906 84.0269,360.573 82.5,360.5C 82.9731,359.094 83.9731,358.427 85.5,358.5 Z M 402.5,359.5 C 401.341,361.25 399.674,362.25 397.5,362.5C 398.659,360.75 400.326,359.75 402.5,359.5 Z M 368.5,363.5 C 367.341,365.25 365.674,366.25 363.5,366.5C 364.659,364.75 366.326,363.75 368.5,363.5 Z M 89.5,370.5 C 89.5,370.833 89.5,371.167 89.5,371.5C 87.9505,372.441 86.2838,373.107 84.5,373.5C 85.6594,371.75 87.326,370.75 89.5,370.5 Z M 420.5,374.5 C 419.341,376.25 417.674,377.25 415.5,377.5C 416.659,375.75 418.326,374.75 420.5,374.5 Z M 428.5,403.5 C 428.027,404.906 427.027,405.573 425.5,405.5C 425.973,404.094 426.973,403.427 428.5,403.5 Z M 226.5,440.5 C 225.341,442.25 223.674,443.25 221.5,443.5C 222.659,441.75 224.326,440.75 226.5,440.5 Z M 221.5,443.5 C 211.212,450.984 200.546,457.984 189.5,464.5C 187.833,464.5 186.167,464.5 184.5,464.5C 196.572,457.108 208.905,450.108 221.5,443.5 Z M 156.5,452.5 C 155.341,454.25 153.674,455.25 151.5,455.5C 152.659,453.75 154.326,452.75 156.5,452.5 Z M 151.5,455.5 C 145.833,459.5 140.167,463.5 134.5,467.5C 133.167,467.5 131.833,467.5 130.5,467.5C 137.004,462.745 144.004,458.745 151.5,455.5 Z M 119.5,459.5 C 118.341,461.25 116.674,462.25 114.5,462.5C 115.659,460.75 117.326,459.75 119.5,459.5 Z M 220.5,461.5 C 219.341,463.25 217.674,464.25 215.5,464.5C 216.659,462.75 218.326,461.75 220.5,461.5 Z M 215.5,464.5 C 214.055,466.063 212.389,467.396 210.5,468.5C 210.5,468.167 210.5,467.833 210.5,467.5C 211.659,465.75 213.326,464.75 215.5,464.5 Z M 243.5,474.5 C 242.341,476.25 240.674,477.25 238.5,477.5C 239.659,475.75 241.326,474.75 243.5,474.5 Z M 238.5,477.5 C 228.34,484.747 218.006,491.747 207.5,498.5C 205.5,498.5 203.5,498.5 201.5,498.5C 213.572,491.108 225.905,484.108 238.5,477.5 Z"/></g>
<g><path style="opacity:1" fill="#3f4368" d="M 116.5,232.5 C 124.167,231.167 131.833,231.167 139.5,232.5C 135.818,232.335 132.152,232.501 128.5,233C 121.67,236.581 115.003,240.414 108.5,244.5C 108.167,244.333 107.833,244.167 107.5,244C 111.833,240.333 116.167,236.667 120.5,233C 119.207,232.51 117.873,232.343 116.5,232.5 Z"/></g>
<g><path style="opacity:1" fill="#3a3f6a" d="M 324.5,232.5 C 327.5,232.5 330.5,232.5 333.5,232.5C 317.788,242.022 301.788,251.022 285.5,259.5C 285.167,259.5 284.833,259.5 284.5,259.5C 297.833,250.5 311.167,241.5 324.5,232.5 Z"/></g>
<g><path style="opacity:0.892" fill="#343865" d="M 164.5,234.5 C 167.5,234.5 170.5,234.5 173.5,234.5C 161.836,242.001 149.836,249.001 137.5,255.5C 137.5,254.833 137.5,254.167 137.5,253.5C 140.952,250.601 144.618,247.934 148.5,245.5C 149.167,245.5 149.5,245.167 149.5,244.5C 150.167,244.167 150.833,243.833 151.5,243.5C 152.167,243.5 152.5,243.167 152.5,242.5C 153.167,242.5 153.5,242.167 153.5,241.5C 153.833,241.5 154.167,241.5 154.5,241.5C 155.167,241.5 155.5,241.167 155.5,240.5C 157.027,240.573 158.027,239.906 158.5,238.5C 160.853,237.66 162.853,236.326 164.5,234.5 Z"/></g>
<g><path style="opacity:1" fill="#3e436d" d="M 389.5,233.5 C 390.833,233.833 392.167,234.167 393.5,234.5C 380.061,242.726 366.394,250.726 352.5,258.5C 351.304,258.154 351.304,257.654 352.5,257C 365.007,249.304 377.34,241.47 389.5,233.5 Z"/></g>
<g><path style="opacity:0.999" fill="#353a66" d="M 190.5,235.5 C 194.5,235.5 198.5,235.5 202.5,235.5C 188.166,244.336 173.5,252.669 158.5,260.5C 158.5,259.833 158.167,259.5 157.5,259.5C 168.5,251.5 179.5,243.5 190.5,235.5 Z"/></g>
<g><path style="opacity:0.923" fill="#363b66" d="M 407.5,236.5 C 409.698,236.875 411.698,237.542 413.5,238.5C 405.616,243.943 397.283,248.609 388.5,252.5C 388.565,252.062 388.399,251.728 388,251.5C 385.833,252.488 384,253.821 382.5,255.5C 380.326,255.75 378.659,256.75 377.5,258.5C 375.883,259.038 374.216,259.371 372.5,259.5C 383.996,251.585 395.662,243.918 407.5,236.5 Z"/></g>
<g><path style="opacity:0.853" fill="#464b71" d="M 353.5,232.5 C 360.017,231.315 366.684,231.315 373.5,232.5C 361.395,240.059 349.062,247.392 336.5,254.5C 335.304,254.154 335.304,253.654 336.5,253C 347.167,246.333 357.833,239.667 368.5,233C 363.511,232.501 358.511,232.334 353.5,232.5 Z"/></g>
<g><path style="opacity:0.886" fill="#3d4372" d="M 432.5,247.5 C 434.86,248.865 436.527,250.865 437.5,253.5C 435.11,254.446 432.944,255.779 431,257.5C 430.617,256.944 430.117,256.611 429.5,256.5C 430.028,255.153 430.195,253.819 430,252.5C 426.924,254.426 423.758,256.092 420.5,257.5C 423.754,254.529 427.42,252.029 431.5,250C 432.252,249.329 432.586,248.496 432.5,247.5 Z"/></g>
<g><path style="opacity:0.004" fill="#22243a" d="M 420.5,257.5 C 420.027,258.906 419.027,259.573 417.5,259.5C 417.973,258.094 418.973,257.427 420.5,257.5 Z"/></g>
<g><path style="opacity:0.883" fill="#515790" d="M 445.5,268.5 C 446.451,269.919 446.784,271.585 446.5,273.5C 443.636,276.014 440.302,277.68 436.5,278.5C 436.833,277.833 437.167,277.167 437.5,276.5C 439.812,274.364 442.312,272.364 445,270.5C 445.464,269.906 445.631,269.239 445.5,268.5 Z"/></g>
<g><path style="opacity:1" fill="#292929" d="M 126.5,429.5 C 125.71,428.599 124.71,427.932 123.5,427.5C 117.839,422.84 112.172,418.173 106.5,413.5C 106.5,412.833 106.167,412.5 105.5,412.5C 101.868,405.999 98.368,399.332 95,392.5C 93.6022,385.235 91.7688,378.235 89.5,371.5C 89.5,371.167 89.5,370.833 89.5,370.5C 89.4187,361.801 89.9187,353.135 91,344.5C 96.5254,314.256 113.359,293.089 141.5,281C 169.438,273.468 195.772,277.134 220.5,292C 243.975,310.462 254.141,334.629 251,364.5C 248.323,392.384 235.156,413.551 211.5,428C 183.303,441.215 154.969,441.715 126.5,429.5 Z"/></g>
<g><path style="opacity:0.816" fill="#4d5191" d="M 447.5,284.5 C 448.434,285.568 448.768,286.901 448.5,288.5C 445.339,289.913 442.339,291.58 439.5,293.5C 439.392,291.486 440.058,289.82 441.5,288.5C 442.167,288.5 442.5,288.167 442.5,287.5C 443.167,287.5 443.5,287.167 443.5,286.5C 444.833,285.833 446.167,285.167 447.5,284.5 Z"/></g>
<g><path style="opacity:1" fill="#f8fafc" d="M 207.5,297.5 C 197.857,304.802 188.191,312.135 178.5,319.5C 155.858,317.577 140.358,327.244 132,348.5C 127.032,367.464 132.865,381.797 149.5,391.5C 146.519,391.182 144.185,392.182 142.5,394.5C 134.415,397.709 126.748,401.709 119.5,406.5C 109.435,397.376 103.268,386.043 101,372.5C 96.6688,338.671 108.502,312.171 136.5,293C 156.419,282.438 176.753,281.772 197.5,291C 201.411,292.444 204.744,294.611 207.5,297.5 Z"/></g>
<g><path style="opacity:0.94" fill="#50568d" d="M 65.5,287.5 C 67.0992,288.562 68.7659,288.562 70.5,287.5C 71.1098,288.391 71.4431,289.391 71.5,290.5C 70.5,292.167 69.1667,293.5 67.5,294.5C 66.5933,292.343 65.9267,290.01 65.5,287.5 Z"/></g>
<g><path style="opacity:0.986" fill="#272828" d="M 363.5,293.5 C 364.5,293.5 365.5,293.5 366.5,293.5C 372.954,294.877 379.62,295.71 386.5,296C 387.308,296.308 387.975,296.808 388.5,297.5C 384.703,299.283 380.703,300.45 376.5,301C 367.787,301.224 359.12,301.724 350.5,302.5C 349.833,302.5 349.167,302.5 348.5,302.5C 336.043,300.876 323.376,300.043 310.5,300C 309.289,299.107 309.289,298.274 310.5,297.5C 315.789,296.505 321.123,295.672 326.5,295C 338.878,294.794 351.212,294.294 363.5,293.5 Z"/></g>
<g><path style="opacity:1" fill="#dfebfb" d="M 207.5,297.5 C 210.891,298.529 213.557,300.529 215.5,303.5C 208.285,306.441 201.285,309.941 194.5,314C 190.657,316.035 187.324,318.535 184.5,321.5C 182.302,321.125 180.302,320.458 178.5,319.5C 188.191,312.135 197.857,304.802 207.5,297.5 Z"/></g>
<g><path style="opacity:0.808" fill="#515693" d="M 447.5,312.5 C 447.5,314.833 447.5,317.167 447.5,319.5C 446.292,320.234 444.959,320.567 443.5,320.5C 443.84,318.321 444.84,316.488 446.5,315C 445.906,314.536 445.239,314.369 444.5,314.5C 444.973,313.094 445.973,312.427 447.5,312.5 Z"/></g>
<g><path style="opacity:1" fill="#faf7f0" d="M 166.5,328.5 C 169.713,328.19 172.713,328.523 175.5,329.5C 169.993,332.92 164.326,335.754 158.5,338C 161.002,334.667 163.668,331.501 166.5,328.5 Z"/></g>
<g><path style="opacity:1" fill="#e9b544" d="M 166.5,328.5 C 163.668,331.501 161.002,334.667 158.5,338C 164.326,335.754 169.993,332.92 175.5,329.5C 179.293,329.731 182.626,331.065 185.5,333.5C 180.37,339.131 175.036,344.631 169.5,350C 176.667,346.744 183.667,342.911 190.5,338.5C 192.924,341.008 194.59,344.008 195.5,347.5C 193.351,348.748 191.351,350.248 189.5,352C 190.167,352.667 190.833,352.667 191.5,352C 193.093,351.051 194.426,349.885 195.5,348.5C 196.268,349.263 196.768,350.263 197,351.5C 197.499,355.152 197.665,358.818 197.5,362.5C 194.665,365.165 191.665,367.665 188.5,370C 191.421,369.62 194.088,368.453 196.5,366.5C 194.089,377.412 187.423,384.245 176.5,387C 171.416,387.778 166.416,387.611 161.5,386.5C 166.297,381.202 171.297,376.035 176.5,371C 169.298,374.272 162.298,378.105 155.5,382.5C 152.45,380.451 150.117,377.784 148.5,374.5C 150.544,373.969 152.211,372.802 153.5,371C 151.213,370.972 149.213,371.805 147.5,373.5C 145.894,370.014 144.894,366.347 144.5,362.5C 148.938,358.564 153.271,354.398 157.5,350C 152.827,352.175 148.16,354.675 143.5,357.5C 142.731,340.953 150.398,331.286 166.5,328.5 Z"/></g>
<g><path style="opacity:1" fill="#fafbfc" d="M 215.5,303.5 C 237.239,324.429 244.739,349.762 238,379.5C 234.818,389.533 229.818,398.533 223,406.5C 213.07,398.787 201.903,393.62 189.5,391C 200.179,385.31 206.679,376.477 209,364.5C 212.181,343.514 204.015,329.181 184.5,321.5C 187.324,318.535 190.657,316.035 194.5,314C 201.285,309.941 208.285,306.441 215.5,303.5 Z"/></g>
<g><path style="opacity:1" fill="#faf4ea" d="M 185.5,333.5 C 187.5,334.833 189.167,336.5 190.5,338.5C 183.667,342.911 176.667,346.744 169.5,350C 175.036,344.631 180.37,339.131 185.5,333.5 Z"/></g>
<g><path style="opacity:0.996" fill="#2a2a2a" d="M 396.5,345.5 C 398.167,345.5 399.833,345.5 401.5,345.5C 405.182,345.335 408.848,345.501 412.5,346C 414.592,346.953 414.925,348.286 413.5,350C 403.864,351.746 394.198,353.246 384.5,354.5C 383.167,354.5 381.833,354.5 380.5,354.5C 356.831,354.667 333.164,354.5 309.5,354C 303.126,353.689 296.793,353.023 290.5,352C 287.881,351.849 285.547,351.015 283.5,349.5C 292.883,346.306 302.55,344.806 312.5,345C 340.497,344.949 368.497,345.116 396.5,345.5 Z"/></g>
<g><path style="opacity:1" fill="#fbefd6" d="M 195.5,347.5 C 195.5,347.833 195.5,348.167 195.5,348.5C 194.426,349.885 193.093,351.051 191.5,352C 190.833,352.667 190.167,352.667 189.5,352C 191.351,350.248 193.351,348.748 195.5,347.5 Z"/></g>
<g><path style="opacity:1" fill="#faf3e6" d="M 144.5,362.5 C 143.549,361.081 143.216,359.415 143.5,357.5C 148.16,354.675 152.827,352.175 157.5,350C 153.271,354.398 148.938,358.564 144.5,362.5 Z"/></g>
<g><path style="opacity:1" fill="#f7efde" d="M 197.5,362.5 C 197.567,363.959 197.234,365.292 196.5,366.5C 194.088,368.453 191.421,369.62 188.5,370C 191.665,367.665 194.665,365.165 197.5,362.5 Z"/></g>
<g><path style="opacity:0.959" fill="#e0ecfd" d="M 89.5,371.5 C 91.7688,378.235 93.6022,385.235 95,392.5C 98.368,399.332 101.868,405.999 105.5,412.5C 91.5,420.167 77.5,427.833 63.5,435.5C 62.5184,432.038 62.185,428.371 62.5,424.5C 64.674,424.25 66.3406,423.25 67.5,421.5C 65.7162,421.893 64.0495,422.559 62.5,423.5C 62.5,419.5 62.5,415.5 62.5,411.5C 64.0269,411.573 65.0269,410.906 65.5,409.5C 64.391,409.557 63.391,409.89 62.5,410.5C 62.201,402.747 62.5343,395.08 63.5,387.5C 70.7089,383.068 77.7089,378.402 84.5,373.5C 86.2838,373.107 87.9505,372.441 89.5,371.5 Z M 70.5,419.5 C 70.0269,420.906 69.0269,421.573 67.5,421.5C 67.9731,420.094 68.9731,419.427 70.5,419.5 Z"/></g>
<g><path style="opacity:1" fill="#f0eee4" d="M 148.5,374.5 C 147.833,374.5 147.5,374.167 147.5,373.5C 149.213,371.805 151.213,370.972 153.5,371C 152.211,372.802 150.544,373.969 148.5,374.5 Z"/></g>
<g><path style="opacity:1" fill="#faf4e9" d="M 161.5,386.5 C 159.118,385.649 157.118,384.316 155.5,382.5C 162.298,378.105 169.298,374.272 176.5,371C 171.297,376.035 166.297,381.202 161.5,386.5 Z"/></g>
<g><path style="opacity:0.998" fill="#2a2a2a" d="M 412.5,379.5 C 413.141,380.482 413.807,381.482 414.5,382.5C 412.78,383.934 410.78,384.767 408.5,385C 372.242,388.789 335.909,389.455 299.5,387C 294.052,386.461 288.718,385.461 283.5,384C 286.597,382.39 289.931,381.39 293.5,381C 300.167,380.333 306.833,379.667 313.5,379C 338.838,378.91 364.171,379.41 389.5,380.5C 397.2,380.45 404.866,380.116 412.5,379.5 Z"/></g>
<g><path style="opacity:1" fill="#cca246" d="M 149.5,391.5 C 149.938,391.435 150.272,391.601 150.5,392C 148.073,393.591 145.407,394.425 142.5,394.5C 144.185,392.182 146.519,391.182 149.5,391.5 Z"/></g>
<g><path style="opacity:1" fill="#f8f5f1" d="M 170.5,395.5 C 162.396,400.726 154.063,405.726 145.5,410.5C 145.167,410.167 144.833,409.833 144.5,409.5C 147.361,405.773 149.695,401.773 151.5,397.5C 157.699,395.817 164.032,395.151 170.5,395.5 Z"/></g>
<g><path style="opacity:1" fill="#e8b545" d="M 170.5,395.5 C 175.586,395.626 180.586,396.293 185.5,397.5C 180.277,402.528 175.777,407.862 172,413.5C 178.982,409.267 185.816,404.934 192.5,400.5C 196.582,401.376 200.249,403.043 203.5,405.5C 200.668,408.501 198.002,411.667 195.5,415C 199.993,413.42 204.326,411.254 208.5,408.5C 211.245,409.737 213.578,411.57 215.5,414C 213.474,415.594 211.474,417.094 209.5,418.5C 206.669,419.079 204.336,420.412 202.5,422.5C 192.615,427.816 181.948,430.483 170.5,430.5C 173.586,425.908 177.253,421.742 181.5,418C 174.333,421.256 167.333,425.089 160.5,429.5C 155.962,429.282 151.629,428.282 147.5,426.5C 151.33,422.501 154.997,418.335 158.5,414C 152.143,416.347 146.143,419.513 140.5,423.5C 136.779,421.646 133.446,419.313 130.5,416.5C 132.587,413.659 134.087,410.659 135,407.5C 132.012,409.399 129.179,411.399 126.5,413.5C 125.711,413.217 125.044,412.717 124.5,412C 132.344,405.077 141.344,400.244 151.5,397.5C 149.695,401.773 147.361,405.773 144.5,409.5C 144.833,409.833 145.167,410.167 145.5,410.5C 154.063,405.726 162.396,400.726 170.5,395.5 Z"/></g>
<g><path style="opacity:1" fill="#f7f6f2" d="M 185.5,397.5 C 187.987,398.323 190.321,399.323 192.5,400.5C 185.816,404.934 178.982,409.267 172,413.5C 175.777,407.862 180.277,402.528 185.5,397.5 Z"/></g>
<g><path style="opacity:1" fill="#dfe6ed" d="M 203.5,405.5 C 205.434,406.11 207.101,407.11 208.5,408.5C 204.326,411.254 199.993,413.42 195.5,415C 198.002,411.667 200.668,408.501 203.5,405.5 Z"/></g>
<g><path style="opacity:1" fill="#e0e7ed" d="M 130.5,416.5 C 128.596,416.262 127.262,415.262 126.5,413.5C 129.179,411.399 132.012,409.399 135,407.5C 134.087,410.659 132.587,413.659 130.5,416.5 Z"/></g>
<g><path style="opacity:1" fill="#2a2b2b" d="M 385.5,413.5 C 386.167,413.5 386.833,413.5 387.5,413.5C 395.528,413.169 403.528,413.502 411.5,414.5C 412.428,415.768 412.595,417.101 412,418.5C 408.105,420.516 403.939,421.683 399.5,422C 392.512,422.666 385.512,423.166 378.5,423.5C 348.167,422.693 317.834,421.86 287.5,421C 286.426,420.261 285.759,419.261 285.5,418C 288.681,414.6 292.681,412.933 297.5,413C 326.841,412.304 356.174,412.47 385.5,413.5 Z"/></g>
<g><path style="opacity:0.969" fill="#e0edfd" d="M 106.5,413.5 C 112.172,418.173 117.839,422.84 123.5,427.5C 104.869,438.485 86.2022,449.485 67.5,460.5C 64.769,453.883 63.4357,446.883 63.5,439.5C 77.9717,431.096 92.3051,422.429 106.5,413.5 Z"/></g>
<g><path style="opacity:1" fill="#dee6f0" d="M 147.5,426.5 C 145.046,425.773 142.713,424.773 140.5,423.5C 146.143,419.513 152.143,416.347 158.5,414C 154.997,418.335 151.33,422.501 147.5,426.5 Z"/></g>
<g><path style="opacity:1" fill="#c4c9cc" d="M 209.5,418.5 C 207.664,420.588 205.331,421.921 202.5,422.5C 204.336,420.412 206.669,419.079 209.5,418.5 Z"/></g>
<g><path style="opacity:0.978" fill="#dee6ed" d="M 170.5,430.5 C 166.958,430.813 163.625,430.479 160.5,429.5C 167.333,425.089 174.333,421.256 181.5,418C 177.253,421.742 173.586,425.908 170.5,430.5 Z"/></g>
<g><path style="opacity:0.982" fill="#e0edfd" d="M 444.5,435.5 C 447.958,449.089 446.958,462.422 441.5,475.5C 440.833,475.5 440.5,475.833 440.5,476.5C 439.833,476.5 439.5,476.833 439.5,477.5C 438.167,478.167 438.167,478.833 439.5,479.5C 431.698,492.577 420.031,499.244 404.5,499.5C 409.833,493.833 415.167,488.167 420.5,482.5C 410.833,487.331 401.5,492.664 392.5,498.5C 373.5,498.5 354.5,498.5 335.5,498.5C 348.833,488.167 362.167,477.833 375.5,467.5C 357.166,477.331 339.166,487.664 321.5,498.5C 302.833,498.5 284.167,498.5 265.5,498.5C 274.167,492.5 282.833,486.5 291.5,480.5C 280.502,485.997 269.835,491.997 259.5,498.5C 253.167,498.5 246.833,498.5 240.5,498.5C 261.327,483.919 282.327,469.586 303.5,455.5C 335.494,456.491 367.494,456.658 399.5,456C 402.854,455.545 406.187,455.045 409.5,454.5C 409.833,455.833 410.167,455.833 410.5,454.5C 411.167,454.167 411.833,453.833 412.5,453.5C 413.167,453.5 413.5,453.167 413.5,452.5C 423.994,447.087 434.327,441.421 444.5,435.5 Z M 375.5,467.5 C 362.167,477.833 348.833,488.167 335.5,498.5C 330.833,498.5 326.167,498.5 321.5,498.5C 339.166,487.664 357.166,477.331 375.5,467.5 Z M 294.5,478.5 C 294.027,479.906 293.027,480.573 291.5,480.5C 291.973,479.094 292.973,478.427 294.5,478.5 Z M 291.5,480.5 C 282.833,486.5 274.167,492.5 265.5,498.5C 263.5,498.5 261.5,498.5 259.5,498.5C 269.835,491.997 280.502,485.997 291.5,480.5 Z"/></g>
<g><path style="opacity:0.999" fill="#2a2a2b" d="M 317.5,446.5 C 317.833,446.5 318.167,446.5 318.5,446.5C 342.688,446.407 366.854,447.073 391,448.5C 396.862,448.456 402.695,448.123 408.5,447.5C 410.787,448.127 412.454,449.46 413.5,451.5C 413.5,451.833 413.5,452.167 413.5,452.5C 412.833,452.5 412.5,452.833 412.5,453.5C 411.833,453.833 411.167,454.167 410.5,454.5C 410.167,454.5 409.833,454.5 409.5,454.5C 406.187,455.045 402.854,455.545 399.5,456C 367.494,456.658 335.494,456.491 303.5,455.5C 302.5,455.5 301.5,455.5 300.5,455.5C 296.154,455.666 291.821,455.499 287.5,455C 286.167,453.333 286.167,451.667 287.5,450C 297.262,447.096 307.262,445.93 317.5,446.5 Z"/></g>
<g><path style="opacity:0.978" fill="#2c2d2d" d="M 184.5,464.5 C 186.167,464.5 187.833,464.5 189.5,464.5C 196.378,465.435 203.378,466.435 210.5,467.5C 210.5,467.833 210.5,468.167 210.5,468.5C 209.486,469.674 208.153,470.34 206.5,470.5C 205.508,470.328 204.842,470.662 204.5,471.5C 203.5,471.5 202.5,471.5 201.5,471.5C 193.142,471.379 184.809,471.712 176.5,472.5C 174.167,472.5 171.833,472.5 169.5,472.5C 156.36,472.979 143.36,471.979 130.5,469.5C 130.5,468.833 130.5,468.167 130.5,467.5C 131.833,467.5 133.167,467.5 134.5,467.5C 151.196,466.981 167.863,465.981 184.5,464.5 Z"/></g>
<g><path style="opacity:0.96" fill="#e0edfe" d="M 130.5,469.5 C 143.36,471.979 156.36,472.979 169.5,472.5C 154.833,481.167 140.167,489.833 125.5,498.5C 119.167,498.5 112.833,498.5 106.5,498.5C 106.833,497.833 107.167,497.167 107.5,496.5C 106.391,496.557 105.391,496.89 104.5,497.5C 100.012,498.578 95.6784,497.912 91.5,495.5C 90.7025,495.043 90.3691,494.376 90.5,493.5C 103.806,485.511 117.139,477.511 130.5,469.5 Z M 115.5,491.5 C 115.027,492.906 114.027,493.573 112.5,493.5C 112.973,492.094 113.973,491.427 115.5,491.5 Z M 112.5,493.5 C 111.341,495.25 109.674,496.25 107.5,496.5C 108.659,494.75 110.326,493.75 112.5,493.5 Z M 107.5,496.5 C 107.167,497.167 106.833,497.833 106.5,498.5C 105.508,498.672 104.842,498.338 104.5,497.5C 105.391,496.89 106.391,496.557 107.5,496.5 Z"/></g>
<g><path style="opacity:0.954" fill="#dfecfc" d="M 201.5,471.5 C 186.334,480.248 171.334,489.248 156.5,498.5C 149.833,498.5 143.167,498.5 136.5,498.5C 149.833,489.833 163.167,481.167 176.5,472.5C 184.809,471.712 193.142,471.379 201.5,471.5 Z"/></g>
<g><path style="opacity:0.02" fill="#bfd9e0" d="M 451.5,480.5 C 451.573,482.027 450.906,483.027 449.5,483.5C 449.427,481.973 450.094,480.973 451.5,480.5 Z"/></g>
<g><path style="opacity:0.918" fill="#d6e3f2" d="M 84.5,500.5 C 88.3875,500.646 92.0542,501.313 95.5,502.5C 92.5391,505.575 89.2058,506.075 85.5,504C 84.6634,502.989 84.33,501.822 84.5,500.5 Z"/></g>
<g><path style="opacity:0.856" fill="#dae6f5" d="M 112.5,505.5 C 109.077,508.412 106.077,508.079 103.5,504.5C 103.56,503.957 103.893,503.624 104.5,503.5C 107.311,504.08 109.977,504.746 112.5,505.5 Z"/></g>
<g><path style="opacity:0.463" fill="#c5d1df" d="M 334.5,506.5 C 336.5,505.167 338.5,505.167 340.5,506.5C 338.5,507.833 336.5,507.833 334.5,506.5 Z"/></g>
<g><path style="opacity:0.318" fill="#d1ddec" d="M 352.5,506.5 C 354.5,505.167 356.5,505.167 358.5,506.5C 356.5,507.833 354.5,507.833 352.5,506.5 Z"/></g>
<g><path style="opacity:0.341" fill="#c7d2e0" d="M 371.5,506.5 C 373.5,505.167 375.5,505.167 377.5,506.5C 375.5,507.833 373.5,507.833 371.5,506.5 Z"/></g>
</svg>
